<svg width="150" height="150" viewBox="0 0 150 150" fill="none" xmlns="http://www.w3.org/2000/svg">
<ellipse cx="81.5326" cy="75" rx="68.4674" ry="75" fill="#EB5151"/>
<path d="M96.7297 142.789C127.803 134.712 163.617 75.866 122.537 21.6353C115.1 42.2823 99.0576 99.9552 96.7297 142.789Z" fill="white" stroke="white"/>
<path d="M36.689 125.481C16.1488 100.674 9.30214 36.0584 62.4961 8.36619C60.4621 29.6158 51.8243 87.4492 36.689 125.481Z" fill="white" stroke="white"/>
<path d="M56.1758 138.751C65.035 118.229 80.864 68.201 84.6161 6.63538C90.3486 7.20543 97.3339 7.83045 104.63 11.2508C95.6508 40.0238 77.7694 102.405 73.556 143.943C64.7079 143.02 58.257 140.173 56.1758 138.751Z" fill="white" stroke="white"/>
</svg>
