<svg width="500" height="516" viewBox="0 0 500 516" fill="none" xmlns="http://www.w3.org/2000/svg">
<path d="M500 250C500 264.286 498.802 278.293 496.5 291.925C495.354 298.713 493.934 305.409 492.252 312C491.047 316.722 489.708 321.39 488.239 326C456.075 426.911 361.573 500 250 500C138.427 500 43.9252 426.911 11.7615 326C9.31394 318.321 7.22739 310.481 5.52176 302.5C4.49937 297.716 3.61385 292.881 2.86949 288C0.97992 275.609 0 262.919 0 250C0 111.929 111.929 0 250 0C388.071 0 500 111.929 500 250Z" fill="#E5E5E5"/>
<path d="M500 250C500 111.929 388.071 0 250 0V500C361.573 500 456.075 426.911 488.239 326C495.877 302.034 500 276.498 500 250Z" fill="#FDFFE0"/>
<path d="M12.892 326.5C45.0557 427.411 139.558 500.5 251.131 500.5V303L186.131 297L123.131 326.5L37.6305 287L4 288.5C4.74436 293.381 5.62988 298.216 6.65227 303C8.3579 310.981 10.4445 318.821 12.892 326.5Z" fill="#67A0D5"/>
<path d="M4 288C16.7052 274.075 45.8029 256.659 80.9355 290.079C116.068 323.498 154.129 304.004 168.767 290.079C181.472 276.154 214.867 256.58 250 290C285.133 323.419 323.992 304.004 338.63 290.079C351.335 276.154 385.529 256.659 420.662 290.079C455.794 323.498 479.861 308.425 494.5 294.5L492 307.5L487 326C472.361 339.925 455.794 355.679 420.662 322.259C385.529 288.839 351.335 308.334 338.63 322.259C323.992 336.184 285.133 355.919 250 322.5C214.867 289.08 181.472 308.334 168.767 322.259C154.129 336.184 116.068 355.679 80.9355 322.259C45.8029 288.839 22.7052 302.575 10 316.5L7 302.5L4 288Z" fill="#84CFF9"/>
<path d="M4 288L3.63064 287.663L3.45868 287.851L3.51037 288.101L4 288ZM80.9355 290.079L80.5909 290.441L80.5909 290.441L80.9355 290.079ZM168.767 290.079L169.112 290.441L169.125 290.429L169.137 290.416L168.767 290.079ZM250 290L250.345 289.638L250.345 289.638L250 290ZM338.63 290.079L338.975 290.441L338.988 290.429L338.999 290.416L338.63 290.079ZM494.5 294.5L494.991 294.594L495.286 293.063L494.155 294.138L494.5 294.5ZM10 316.5L9.5111 316.605L9.71463 317.554L10.3694 316.837L10 316.5ZM80.9355 322.259L80.5909 322.621L80.5909 322.621L80.9355 322.259ZM168.767 322.259L169.112 322.621L169.125 322.609L169.137 322.596L168.767 322.259ZM338.63 322.259L338.975 322.621L338.988 322.609L338.999 322.596L338.63 322.259ZM487 326L487.345 326.362L487.446 326.266L487.483 326.13L487 326ZM492 307.5L492.483 307.63L492.488 307.612L492.491 307.594L492 307.5ZM7 302.5L6.51036 302.601L6.5111 302.605L7 302.5ZM4.36936 288.337C10.6736 281.428 21.0264 273.675 34.129 271.78C47.204 269.889 63.1138 273.816 80.5909 290.441L81.2801 289.716C63.6246 272.922 47.4193 268.847 33.9859 270.79C20.5802 272.729 10.0316 280.647 3.63064 287.663L4.36936 288.337ZM80.5909 290.441C98.2741 307.262 116.73 310.787 132.613 308.327C148.47 305.872 161.734 297.459 169.112 290.441L168.423 289.716C161.162 296.623 148.077 304.921 132.46 307.339C116.871 309.753 98.7296 306.315 81.2801 289.716L80.5909 290.441ZM169.137 290.416C175.434 283.514 186.864 275.211 201.058 272.778C215.22 270.35 232.196 273.754 249.655 290.362L250.345 289.638C232.672 272.827 215.383 269.307 200.889 271.792C186.425 274.272 174.806 282.718 168.398 289.742L169.137 290.416ZM249.655 290.362C267.34 307.184 285.995 310.727 302.075 308.288C318.129 305.853 331.594 297.462 338.975 290.441L338.286 289.716C331.027 296.621 317.744 304.9 301.925 307.299C286.133 309.694 267.793 306.235 250.345 289.638L249.655 290.362ZM338.999 290.416C345.293 283.518 356.923 275.232 371.318 272.818C385.683 270.408 402.859 273.834 420.317 290.441L421.006 289.716C403.332 272.904 385.844 269.367 371.153 271.831C356.492 274.291 344.672 282.715 338.261 289.742L338.999 290.416ZM420.317 290.441C437.952 307.216 452.891 311.893 465.32 310.541C477.725 309.191 487.501 301.847 494.845 294.862L494.155 294.138C486.86 301.077 477.284 308.233 465.212 309.546C453.165 310.857 438.503 306.361 421.006 289.716L420.317 290.441ZM10.3694 316.837C16.6833 309.917 25.5257 303.105 37.0997 302.124C48.6618 301.143 63.0856 305.97 80.5909 322.621L81.2801 321.897C63.6528 305.129 48.9615 300.114 37.0152 301.127C25.0809 302.139 16.0219 309.158 9.63064 316.163L10.3694 316.837ZM80.5909 322.621C98.2741 339.442 116.73 342.967 132.613 340.507C148.47 338.052 161.734 329.639 169.112 322.621L168.423 321.897C161.162 328.804 148.077 337.101 132.46 339.519C116.871 341.933 98.7296 338.495 81.2801 321.897L80.5909 322.621ZM169.137 322.596C175.432 315.696 186.862 307.473 201.055 305.119C215.218 302.769 232.195 306.253 249.655 322.862L250.345 322.138C232.673 305.327 215.386 301.728 200.891 304.132C186.428 306.531 174.807 314.897 168.398 321.922L169.137 322.596ZM249.655 322.862C267.341 339.685 285.997 343.147 302.078 340.628C318.131 338.112 331.596 329.641 338.975 322.621L338.286 321.897C331.026 328.802 317.741 337.161 301.923 339.64C286.131 342.114 267.792 338.734 250.345 322.138L249.655 322.862ZM338.999 322.596C345.293 315.698 356.923 307.413 371.318 304.998C385.683 302.588 402.859 306.014 420.317 322.621L421.006 321.897C403.332 305.084 385.844 301.548 371.153 304.012C356.492 306.471 344.672 314.895 338.261 321.922L338.999 322.596ZM420.317 322.621C437.927 339.373 451 343.913 461.588 342.378C472.136 340.85 480.05 333.301 487.345 326.362L486.655 325.638C479.311 332.624 471.623 339.914 461.444 341.389C451.305 342.858 438.528 338.565 421.006 321.897L420.317 322.621ZM487.483 326.13L492.483 307.63L491.517 307.369L486.517 325.869L487.483 326.13ZM492.491 307.594L494.991 294.594L494.009 294.405L491.509 307.405L492.491 307.594ZM3.51037 288.101L6.51037 302.601L7.48963 302.399L4.48963 287.899L3.51037 288.101ZM6.5111 302.605L9.5111 316.605L10.4889 316.395L7.4889 302.395L6.5111 302.605ZM249.5 290V306.25H250.5V290H249.5ZM249.5 306.25V322.5H250.5V306.25H249.5Z" fill="#67A0D5"/>
<path d="M80.9355 290.234C45.8029 256.814 16.7052 274.23 4 288.155L7 302.655L10 316.655C22.7052 302.73 45.8029 288.994 80.9355 322.414C116.068 355.834 154.129 336.339 168.767 322.414C181.472 308.489 214.867 289.235 250 322.655V290.155C214.867 256.735 181.472 276.309 168.767 290.234C154.129 304.159 116.068 323.653 80.9355 290.234Z" fill="#84CFF9"/>
<path d="M4 288.155L3.63064 287.818L3.45868 288.006L3.51037 288.256L4 288.155ZM80.9355 290.234L80.5909 290.596L80.5909 290.596L80.9355 290.234ZM168.767 290.234L169.112 290.596L169.125 290.584L169.137 290.571L168.767 290.234ZM250 290.155H250.5V289.94L250.345 289.793L250 290.155ZM10 316.655L9.5111 316.76L9.71463 317.709L10.3694 316.992L10 316.655ZM80.9355 322.414L80.5909 322.776L80.5909 322.776L80.9355 322.414ZM168.767 322.414L169.112 322.776L169.125 322.764L169.137 322.751L168.767 322.414ZM250 322.655L249.655 323.017L250.5 323.821V322.655H250ZM7 302.655L6.51036 302.756L6.5111 302.76L7 302.655ZM4.36936 288.492C10.6736 281.583 21.0264 273.83 34.129 271.935C47.204 270.044 63.1138 273.971 80.5909 290.596L81.2801 289.872C63.6246 273.077 47.4193 269.002 33.9859 270.945C20.5802 272.884 10.0316 280.802 3.63064 287.818L4.36936 288.492ZM80.5909 290.596C98.2741 307.417 116.73 310.942 132.613 308.482C148.47 306.027 161.734 297.614 169.112 290.596L168.423 289.872C161.162 296.778 148.077 305.076 132.46 307.494C116.871 309.908 98.7296 306.47 81.2801 289.872L80.5909 290.596ZM169.137 290.571C175.434 283.669 186.864 275.366 201.058 272.933C215.22 270.505 232.196 273.909 249.655 290.517L250.345 289.793C232.672 272.982 215.383 269.462 200.889 271.947C186.425 274.427 174.806 282.874 168.398 289.897L169.137 290.571ZM10.3694 316.992C16.6833 310.072 25.5257 303.26 37.0997 302.279C48.6618 301.298 63.0856 306.125 80.5909 322.776L81.2801 322.052C63.6528 305.284 48.9615 300.269 37.0152 301.282C25.0809 302.294 16.0219 309.313 9.63064 316.318L10.3694 316.992ZM80.5909 322.776C98.2741 339.597 116.73 343.122 132.613 340.662C148.47 338.207 161.734 329.794 169.112 322.776L168.423 322.052C161.162 328.959 148.077 337.256 132.46 339.674C116.871 342.088 98.7296 338.65 81.2801 322.052L80.5909 322.776ZM169.137 322.751C175.432 315.851 186.862 307.628 201.055 305.274C215.218 302.924 232.195 306.408 249.655 323.017L250.345 322.293C232.673 305.483 215.386 301.883 200.891 304.287C186.428 306.686 174.807 315.052 168.398 322.077L169.137 322.751ZM3.51037 288.256L6.51037 302.756L7.48963 302.554L4.48963 288.054L3.51037 288.256ZM6.5111 302.76L9.5111 316.76L10.4889 316.55L7.4889 302.55L6.5111 302.76ZM249.5 290.155V322.655H250.5V290.155H249.5Z" fill="#67A0D5"/>
<path d="M250 500C361.573 500 456.075 426.911 488.239 326C489.708 321.39 491.047 316.722 492.252 312C493.934 305.409 495.354 298.713 496.5 291.924L479 309L468.5 328.5L459.5 326L372 290L289 323L250 302.5V500Z" fill="#67A0D5"/>
<path d="M338.63 290.453C323.992 304.377 285.133 323.793 250 290.374V306.624V322.874C285.133 356.293 323.992 336.558 338.63 322.633C351.335 308.708 385.529 289.213 420.662 322.633C455.794 356.052 472.361 340.298 487 326.374L492 307.874L494.5 294.874C479.861 308.798 455.794 323.872 420.662 290.453C385.529 257.033 351.335 276.528 338.63 290.453Z" fill="#84CFF9"/>
<path d="M250 290.374L250.345 290.011L249.5 289.208V290.374H250ZM338.63 290.453L338.975 290.815L338.988 290.803L338.999 290.79L338.63 290.453ZM494.5 294.874L494.991 294.968L495.286 293.436L494.155 294.511L494.5 294.874ZM250 322.874H249.5V323.088L249.655 323.236L250 322.874ZM338.63 322.633L338.975 322.995L338.988 322.983L338.999 322.97L338.63 322.633ZM487 326.374L487.345 326.736L487.446 326.639L487.483 326.504L487 326.374ZM492 307.874L492.483 308.004L492.488 307.986L492.491 307.968L492 307.874ZM249.655 290.736C267.34 307.558 285.995 311.101 302.075 308.662C318.129 306.227 331.594 297.835 338.975 290.815L338.286 290.09C331.027 296.994 317.744 305.274 301.925 307.673C286.133 310.068 267.793 306.609 250.345 290.011L249.655 290.736ZM338.999 290.79C345.293 283.891 356.923 275.606 371.318 273.192C385.683 270.782 402.859 274.208 420.317 290.815L421.006 290.09C403.332 273.278 385.844 269.741 371.153 272.205C356.492 274.664 344.672 283.089 338.261 290.116L338.999 290.79ZM420.317 290.815C437.952 307.59 452.891 312.267 465.32 310.914C477.725 309.565 487.501 302.221 494.845 295.236L494.155 294.511C486.86 301.451 477.284 308.607 465.212 309.92C453.165 311.231 438.503 306.734 421.006 290.09L420.317 290.815ZM249.655 323.236C267.341 340.059 285.997 343.521 302.078 341.001C318.131 338.486 331.596 330.014 338.975 322.995L338.286 322.271C331.026 329.176 317.741 337.535 301.923 340.013C286.131 342.488 267.792 339.108 250.345 322.511L249.655 323.236ZM338.999 322.97C345.293 316.072 356.923 307.786 371.318 305.372C385.683 302.962 402.859 306.388 420.317 322.995L421.006 322.271C403.332 305.458 385.844 301.921 371.153 304.386C356.492 306.845 344.672 315.269 338.261 322.296L338.999 322.97ZM420.317 322.995C437.927 339.747 451 344.286 461.588 342.752C472.136 341.224 480.05 333.675 487.345 326.736L486.655 326.011C479.311 332.998 471.623 340.288 461.444 341.763C451.305 343.232 438.528 338.938 421.006 322.271L420.317 322.995ZM487.483 326.504L492.483 308.004L491.517 307.743L486.517 326.243L487.483 326.504ZM492.491 307.968L494.991 294.968L494.009 294.779L491.509 307.779L492.491 307.968ZM249.5 290.374V306.624H250.5V290.374H249.5ZM249.5 306.624V322.874H250.5V306.624H249.5Z" fill="#67A0D5"/>
<path d="M169 369C171.869 353.031 214.56 320.598 207.641 282.362C167.929 232.721 99.5134 270.447 70.2697 295.516C17.9478 324.012 30.1625 296.307 46.5588 278.699C63.998 256.245 116.128 229.343 149.518 226.146C170.704 224.117 242.731 255.394 260.453 241.14C275.263 233.192 269.351 214.645 268.178 203.669L281.097 194.46C271.917 186.656 266.674 169.722 284.263 175.07L286.99 177.32L297.178 168.308L299.531 146.987C312.284 145.048 340.7 147.437 352.336 172.499C371.847 208.346 342.621 245.492 319.571 250.046C299.862 244.155 297.462 260.32 303.119 265.149C338.18 285.745 417.74 339.601 412 351L375 355.5C375 355.5 331.254 312.717 310.316 321.252C289.378 329.787 282.171 365.135 276.545 377.728C270.92 390.322 246.351 374.09 222.61 363.304L169 369Z" fill="#FDDBB1" stroke="#D27D1A"/>
<path d="M276.962 219.468C259.513 196.359 237.46 145.798 288.838 128.421C340.215 111.045 360.575 157.214 364.333 182.471L355.417 173.279L358.858 182.995L347.972 168.969L345.462 174.232L333.458 153.784L331.378 163.526L316.366 148.388L314.878 159.079L300.699 147.377L302.51 166.29L298.432 165.676L297.988 176.769L294.477 171.58L292.089 183.361L288.817 180.661L285.804 175.425C266.838 166.19 269.882 187.497 280.054 194.057L284.348 202.185L281.124 199.982L282.935 218.896L276.295 212.5L276.962 219.468Z" fill="#7E3421" stroke="#D27D1A"/>
<path d="M338.63 424.453C323.992 438.377 285.133 458.42 250 425V440.624V457.5C285.133 490.92 323.992 470.558 338.63 456.633C349.493 444.727 375.564 428.496 405 445C412.5 438.5 419.667 432.518 424.5 427.5C423.238 426.398 421.958 425.686 420.662 424.453C385.529 391.033 351.335 410.528 338.63 424.453Z" fill="#84CFF9"/>
<path d="M250 425L250.345 424.638L249.5 423.834V425H250ZM338.63 424.453L338.975 424.815L338.988 424.803L338.999 424.79L338.63 424.453ZM420.662 424.453L421.006 424.09L421.006 424.09L420.662 424.453ZM250 457.5H249.5V457.714L249.655 457.862L250 457.5ZM338.63 456.633L338.975 456.995L338.988 456.983L338.999 456.97L338.63 456.633ZM424.5 427.5L424.86 427.847L425.224 427.469L424.829 427.123L424.5 427.5ZM405 445L404.755 445.436L405.062 445.608L405.327 445.378L405 445ZM249.655 425.362C267.342 442.186 285.999 445.571 302.08 442.974C318.134 440.381 331.597 431.833 338.975 424.815L338.286 424.09C331.025 430.997 317.739 439.432 301.921 441.987C286.129 444.537 267.791 441.233 250.345 424.638L249.655 425.362ZM338.999 424.79C345.293 417.892 356.923 409.606 371.318 407.192C385.683 404.782 402.859 408.208 420.317 424.815L421.006 424.09C403.332 407.278 385.844 403.741 371.153 406.205C356.492 408.664 344.672 417.089 338.261 424.116L338.999 424.79ZM249.655 457.862C267.343 474.687 286.002 477.992 302.082 475.314C318.136 472.641 331.598 464.012 338.975 456.995L338.286 456.271C331.023 463.179 317.737 471.693 301.918 474.327C286.127 476.957 267.79 473.732 250.345 457.138L249.655 457.862ZM249.5 425V440.624H250.5V425H249.5ZM249.5 440.624V457.5H250.5V440.624H249.5ZM420.317 424.815C420.99 425.455 421.655 425.957 422.298 426.429C422.945 426.904 423.56 427.343 424.171 427.877L424.829 427.123C424.178 426.555 423.522 426.087 422.89 425.623C422.253 425.155 421.63 424.684 421.006 424.09L420.317 424.815ZM338.999 456.97C349.788 445.146 375.612 429.096 404.755 445.436L405.245 444.564C375.516 427.895 349.198 444.309 338.261 456.296L338.999 456.97ZM424.14 427.153C419.327 432.15 412.188 438.109 404.673 444.622L405.327 445.378C412.812 438.891 420.006 432.886 424.86 427.847L424.14 427.153Z" fill="#84CFF9"/>
<path d="M250 354.5C285.133 387.92 323.992 368.377 338.63 354.453C351.335 340.528 385.529 321.033 420.662 354.453C438.822 371.728 453.527 375.783 466 374L456.5 389L445.5 404C438.249 401.212 430.422 395.917 420.662 386.633C385.529 353.213 351.335 372.708 338.63 386.633C323.992 400.558 285.133 420.42 250 387C214.867 353.58 181.472 372.489 168.767 386.414C154.129 400.339 116.068 419.834 80.9355 386.414C59.6685 366.184 42.8114 363.089 30 367L22 349.5L18.5 341C33.6796 332.498 55.4725 330.012 80.9355 354.234C116.068 387.653 154.129 368.159 168.767 354.234C181.472 340.309 214.867 321.08 250 354.5Z" fill="#84CFF9"/>
<path d="M250 354.5L250.345 354.138L250.345 354.138L250 354.5ZM338.63 354.453L338.975 354.815L338.988 354.803L338.999 354.79L338.63 354.453ZM420.662 354.453L421.006 354.09L421.006 354.09L420.662 354.453ZM250 387L250.345 386.638L250.345 386.638L250 387ZM338.63 386.633L338.975 386.995L338.988 386.983L338.999 386.97L338.63 386.633ZM420.662 386.633L421.006 386.271L420.662 386.633ZM466 374L466.422 374.268L467.003 373.352L465.929 373.505L466 374ZM445.5 404L445.321 404.467L445.677 404.604L445.903 404.296L445.5 404ZM456.5 389L456.903 389.296L456.913 389.282L456.922 389.268L456.5 389ZM80.9355 354.234L80.5909 354.596L80.5909 354.596L80.9355 354.234ZM168.767 354.234L169.112 354.596L169.125 354.584L169.137 354.571L168.767 354.234ZM80.9355 386.414L80.5909 386.776L80.5909 386.776L80.9355 386.414ZM168.767 386.414L169.112 386.776L169.125 386.764L169.137 386.751L168.767 386.414ZM18.5 341L18.2557 340.564L17.8689 340.78L18.0377 341.19L18.5 341ZM30 367L29.5453 367.208L29.7273 367.606L30.146 367.478L30 367ZM22 349.5L21.5377 349.69L21.5413 349.699L21.5453 349.708L22 349.5ZM249.655 354.862C267.34 371.685 285.996 375.196 302.076 372.725C318.13 370.258 331.595 361.835 338.975 354.815L338.286 354.09C331.027 360.995 317.743 369.306 301.924 371.736C286.132 374.163 267.792 370.735 250.345 354.138L249.655 354.862ZM338.999 354.79C345.293 347.892 356.923 339.606 371.318 337.192C385.683 334.782 402.859 338.208 420.317 354.815L421.006 354.09C403.332 337.278 385.844 333.741 371.153 336.205C356.492 338.664 344.672 347.089 338.261 354.116L338.999 354.79ZM249.655 387.362C267.341 404.186 285.998 407.616 302.079 405.064C318.132 402.517 331.596 394.014 338.975 386.995L338.286 386.271C331.026 393.177 317.74 401.567 301.922 404.077C286.13 406.582 267.791 403.234 250.345 386.638L249.655 387.362ZM338.999 386.97C345.293 380.072 356.923 371.786 371.318 369.372C385.683 366.962 402.859 370.388 420.317 386.995L421.006 386.271C403.332 369.458 385.844 365.921 371.153 368.386C356.492 370.845 344.672 379.269 338.261 386.296L338.999 386.97ZM420.317 354.815C438.551 372.16 453.401 376.307 466.071 374.495L465.929 373.505C453.652 375.26 439.094 371.296 421.006 354.09L420.317 354.815ZM420.317 386.995C430.101 396.302 437.984 401.646 445.321 404.467L445.679 403.533C438.514 400.779 430.742 395.532 421.006 386.271L420.317 386.995ZM465.578 373.732L456.078 388.732L456.922 389.268L466.422 374.268L465.578 373.732ZM456.097 388.704L445.097 403.704L445.903 404.296L456.903 389.296L456.097 388.704ZM80.5909 354.596C98.2741 371.417 116.73 374.942 132.613 372.482C148.47 370.027 161.734 361.614 169.112 354.596L168.423 353.872C161.162 360.778 148.077 369.076 132.46 371.494C116.871 373.908 98.7296 370.47 81.2801 353.872L80.5909 354.596ZM169.137 354.571C175.432 347.671 186.862 339.454 201.055 337.106C215.218 334.763 232.194 338.253 249.655 354.862L250.345 354.138C232.673 337.328 215.386 333.722 200.892 336.12C186.428 338.512 174.807 346.872 168.398 353.897L169.137 354.571ZM80.5909 386.776C98.2741 403.597 116.73 407.122 132.613 404.662C148.47 402.207 161.734 393.794 169.112 386.776L168.423 386.052C161.162 392.959 148.077 401.256 132.46 403.674C116.871 406.088 98.7296 402.65 81.2801 386.052L80.5909 386.776ZM169.137 386.751C175.431 379.853 186.859 371.715 201.052 369.447C215.215 367.183 232.193 370.752 249.655 387.362L250.345 386.638C232.674 369.829 215.388 366.142 200.894 368.459C186.43 370.771 174.809 379.051 168.398 386.077L169.137 386.751ZM18.7443 341.436C26.2624 337.225 35.3982 334.514 45.7982 335.842C56.1982 337.169 67.9179 342.541 80.5909 354.596L81.2801 353.872C68.4901 341.705 56.5819 336.21 45.9248 334.85C35.2676 333.49 25.9172 336.272 18.2557 340.564L18.7443 341.436ZM30.146 367.478C42.7246 363.639 59.4013 366.62 80.5909 386.776L81.2801 386.052C59.9356 365.748 42.8982 362.54 29.854 366.522L30.146 367.478ZM18.0377 341.19L21.5377 349.69L22.4623 349.31L18.9623 340.81L18.0377 341.19ZM21.5453 349.708L29.5453 367.208L30.4547 366.792L22.4547 349.292L21.5453 349.708Z" fill="#67A0D5"/>
<path d="M168.267 424.232C153.629 438.157 115.568 457.651 80.4356 424.232C72.3935 416.582 65.7172 411.974 58.5 409C91.7989 445.083 114 459.5 139.701 472.971C152.331 469.525 162.057 462.32 168.267 456.412C180.972 442.487 214.367 423.578 249.5 456.998V424.498C214.367 391.078 180.972 410.307 168.267 424.232Z" fill="#84CFF9"/>
<path d="M80.4356 424.232L80.091 424.594L80.091 424.594L80.4356 424.232ZM168.267 424.232L168.612 424.594L168.625 424.582L168.637 424.569L168.267 424.232ZM249.5 424.498H250V424.283L249.845 424.136L249.5 424.498ZM168.267 456.412L168.612 456.774L168.625 456.762L168.637 456.749L168.267 456.412ZM249.5 456.998L249.156 457.36L250 458.164V456.998H249.5ZM139.701 472.971L139.469 473.414L139.643 473.506L139.833 473.454L139.701 472.971ZM58.5 409L58.6905 408.538L58.1326 409.339L58.5 409ZM80.091 424.594C97.7742 441.415 116.23 444.94 132.113 442.48C147.97 440.025 161.234 431.612 168.612 424.594L167.923 423.87C160.662 430.776 147.577 439.074 131.96 441.492C116.371 443.906 98.2297 440.468 80.7803 423.87L80.091 424.594ZM168.637 424.569C174.932 417.669 186.362 409.452 200.555 407.104C214.718 404.761 231.695 408.251 249.156 424.86L249.845 424.136C232.173 407.326 214.886 403.72 200.392 406.117C185.928 408.51 174.307 416.87 167.898 423.895L168.637 424.569ZM168.637 456.749C174.931 449.851 186.359 441.713 200.552 439.445C214.716 437.181 231.694 440.75 249.156 457.36L249.845 456.636C232.174 439.827 214.888 436.14 200.394 438.457C185.93 440.769 174.309 449.049 167.898 456.075L168.637 456.749ZM249 424.498V456.998H250V424.498H249ZM139.833 473.454C152.568 469.978 162.364 462.718 168.612 456.774L167.923 456.05C161.749 461.922 152.094 469.071 139.569 472.489L139.833 473.454ZM58.3095 409.462C65.452 412.405 72.0773 416.971 80.091 424.594L80.7803 423.87C72.7096 416.192 65.9825 411.542 58.6905 408.538L58.3095 409.462ZM139.933 472.529C114.279 459.082 92.125 444.699 58.8674 408.661L58.1326 409.339C91.4728 445.467 113.721 459.918 139.469 473.414L139.933 472.529Z" fill="#84CFF9"/>
</svg>
