<svg width="198" height="404" viewBox="0 0 198 404" fill="none" xmlns="http://www.w3.org/2000/svg">
<path fill-rule="evenodd" clip-rule="evenodd" d="M144 202H48.5L1 403.5H10L13.0825 390.5L21.5 355H28H170H173L181.784 390.5L185 403.5H196.5L193.113 390.5L173.963 317L144 202ZM24.5 347.5L39 283.5H41H155.5L170 347.5H29.5H24.5ZM138.5 212.5L152.5 275.5H43H42L44.5556 264L56 212.5H138.5Z" fill="#C4C4C4"/>
<path d="M48.5 202L59 192V70.5L48.5 77V202Z" fill="#C4C4C4"/>
<path d="M48.5 202H144L149.5 192H59L48.5 202Z" fill="#C4C4C4"/>
<path d="M21.5 355L13.0825 390.5H21.5L28 355H21.5Z" fill="#C4C4C4"/>
<path d="M39 283.5L24.5 347.5H29.5L41 283.5H39Z" fill="#C4C4C4"/>
<path d="M149.5 192L144 202L173.963 317L149.5 192Z" fill="#C4C4C4"/>
<path d="M181.784 390.5L173 355H170L173.963 390.5H181.784Z" fill="#C4C4C4"/>
<path d="M144 202H48.5M144 202L149.5 192M144 202L173.963 317M48.5 202L1 403.5H10L13.0825 390.5M48.5 202L59 192M48.5 202V77L59 70.5V192M59 192H149.5M149.5 192L173.963 317M13.0825 390.5L21.5 355H28M13.0825 390.5H21.5L28 355M28 355H170M29.5 347.5H170L155.5 283.5H41M29.5 347.5H24.5L39 283.5H41M29.5 347.5L41 283.5M43 275.5H42L44.5556 264M43 275.5H152.5L138.5 212.5H56L44.5556 264M43 275.5L44.5556 264M173.963 317L193.113 390.5L196.5 403.5H185L181.784 390.5M181.784 390.5L173 355H170M181.784 390.5H173.963L170 355" stroke="#091245"/>
<path d="M152 161L71 162.907L69.5 183.5C69.6667 186 71.5 191 77.5 191C83.5 191 127.667 192.333 149.5 193L152 161Z" fill="#091245"/>
<path d="M67 163C65.6667 169.167 64.3 181.9 69.5 183.5L71 162.907L67 163Z" fill="#091245"/>
<path d="M71 162.907L151 161.047L151.5 158L68.5 159L67 163L71 162.907Z" fill="#091245"/>
<path d="M67 163C65.6667 169.167 64.3 181.9 69.5 183.5M67 163L71 162.907M67 163L68.5 159L151.5 158L151 161.047L71 162.907M69.5 183.5L71 162.907M69.5 183.5C69.6667 186 71.5 191 77.5 191C83.5 191 127.667 192.333 149.5 193L152 161L71 162.907" stroke="#1838DE"/>
<path d="M105 72.5C108 73.3333 115.1 76.3 119.5 81.5L122 105V165.5C104.667 164.833 69.2 163.9 66 165.5C62.8 167.1 65 116.5 66.5 91C67.3333 84.5 72.2 71.4 85 71C91 73.8333 103.4 78.1 105 72.5Z" fill="#EB5151" stroke="#9F4C37"/>
<path d="M85.5 70.5L85 62C83 60 77.6 54.6 78 49C71.5 44.5 71.9 34.1 79.5 36.5C87.1 38.9 88.5 34.5 88 31C94.8333 27.8334 109.7 22.6 114.5 27C120.5 32.5 123 59.5001 105.5 61.5C103.833 61.5966 101.2 63.5318 104 70.5C106.8 77.4683 92.8333 73.4035 85.5 70.5Z" fill="#FDDBB1"/>
<path d="M150.5 44C147.726 34.2903 136.828 28.4287 132.435 40.6491C132.078 41.6437 131.763 42.7581 131.5 44C133 69.5001 133.5 80.0001 133.5 84.0001C133.5 84.836 132.059 84.9295 129.678 84.5725C120.668 83.2215 98.2011 75.418 89.5 77.0001C78.5 79.0001 82.5 90.0001 84 94.0001C85.5 98.0001 140 109.5 150.5 107.5C158.9 105.9 154 64.5 150.5 44Z" fill="#FDDBB1"/>
<path d="M193.5 248.5C188.833 221 177.4 165.9 169 165.5C167.333 164 161.7 161.2 152.5 162L150.5 192C153.833 190.167 161.5 200 165.5 254C169 270 194.858 256.5 193.5 248.5Z" fill="#FDDBB1"/>
<path d="M133.5 84.0001C133.5 80.0001 133 69.5001 131.5 44C131.763 42.7581 132.078 41.6437 132.435 40.6491H129.678V84.5725C132.059 84.9295 133.5 84.836 133.5 84.0001Z" fill="#FDDBB1"/>
<path d="M132.435 40.6491C136.828 28.4287 147.726 34.2903 150.5 44C154 64.5 158.9 105.9 150.5 107.5C140 109.5 85.5 98.0001 84 94.0001C82.5 90.0001 78.5 79.0001 89.5 77.0001C98.2011 75.418 120.668 83.2215 129.678 84.5725M132.435 40.6491C132.078 41.6437 131.763 42.7581 131.5 44C133 69.5001 133.5 80.0001 133.5 84.0001C133.5 84.836 132.059 84.9295 129.678 84.5725M132.435 40.6491H129.678V84.5725M193.5 248.5C188.833 221 177.4 165.9 169 165.5C167.333 164 161.7 161.2 152.5 162L150.5 192C153.833 190.167 161.5 200 165.5 254C169 270 194.858 256.5 193.5 248.5ZM85.5 70.5L85 62C83 60 77.6 54.6 78 49C71.5 44.5 71.9 34.1 79.5 36.5C87.1 38.9 88.5 34.5 88 31C94.8333 27.8334 109.7 22.6 114.5 27C120.5 32.5 123 59.5001 105.5 61.5C103.833 61.5966 101.2 63.5318 104 70.5C106.8 77.4683 92.8333 73.4035 85.5 70.5Z" stroke="#D27D1A"/>
<path d="M87.0001 65L77.5001 58V60L73.0001 55V58C69.1667 53.1667 62.0001 42.1 64.0001 36.5L62 38.5C62.6693 37.0778 62.8857 36.2625 65 35C74.3669 32.6228 79.6221 31.7431 89 30.5L91 38.5L89 36.5V41L83 38.5C81 37.6667 76.8456 36.3179 75.5 38C73.5001 40.5 76 44.5 79 48.5C79.1667 52.5 80.5 59.2 84.5 60L87.0001 65Z" fill="#D27D1A" stroke="#9F4C37"/>
<path d="M62 37.0002C55.9999 17.5 83.5 -23 115.5 20.5002C121.5 20.1669 133.6 19.7003 134 20.5002C134.4 21.3 134.167 25.8333 134 28H116.5C104.5 27 111.5 26 89.5 30C81 30.6668 63.6 33.0003 62 37.0002Z" fill="#EB5151" stroke="#AE2929"/>
<path d="M156 40H150C146.667 34.5 138.3 26.8 131.5 40L117.5 39.5C118 35.8333 118.1 29 116.5 29C114.9 29 142.5 28.6667 156.5 28.5C158.667 30.1666 161.6 34.7999 156 40Z" fill="#091245"/>
<path d="M129 43V40L119.5 40L120 43H129Z" fill="#091245"/>
<path d="M156 40H150L151 42.5H156V40Z" fill="#091245"/>
<path d="M156 40H150M156 40C161.6 34.7999 158.667 30.1666 156.5 28.5C142.5 28.6667 114.9 29 116.5 29C118.1 29 118 35.8333 117.5 39.5L131.5 40C138.3 26.8 146.667 34.5 150 40M156 40V42.5H151L150 40M129 40V43H120L119.5 40L129 40Z" stroke="#1838DE"/>
</svg>
