<svg width="260" height="260" viewBox="0 0 260 260" fill="none" xmlns="http://www.w3.org/2000/svg">
<path d="M0 260H260V198.367L242.648 204.582L195.427 186.972L149.344 201.733L105.536 186.972L71.9694 201.733L26.4551 186.972L0 192.669V260Z" fill="#7573D8"/>
<path d="M260 0H0V192.669L26.4551 186.972L71.9694 201.733L105.536 186.972L149.344 201.733L195.427 186.972L242.648 204.582L260 198.367V0Z" fill="#7573D8"/>
<path fill-rule="evenodd" clip-rule="evenodd" d="M162.708 193.157C171.556 234.126 56.8706 195.335 56.8706 195.335C63.4311 185.9 85.5236 174.49 89.9668 153.716C93.8423 135.597 73.4937 105.92 77.0832 90.9222C85.0506 73.0401 114.476 40.615 137.99 27.1082C150.476 24.3713 172.49 27.7544 169.215 31.1938C162.427 38.3218 156.512 32.9965 143.648 34.1024C135.461 39.4212 105.28 70.8653 96.0349 97.1693C113.811 150.683 109.484 140.676 118.484 144.672C127.484 148.669 141.211 132.475 142.901 126.7L173.822 120.766L192.23 130.52C189.463 133.095 184.064 138.833 184.608 141.181C185.289 144.117 185.229 148.217 184.49 149.381C183.898 150.312 180.569 148.43 178.978 147.372C177.011 149.644 175.359 151.036 173.964 151.957C172.74 152.765 171.714 153.211 170.844 153.571C169.495 154.129 168.523 154.48 167.777 155.654C165.558 159.146 160.786 155.974 157.266 149.495C148.462 141.986 146.006 161.877 147.879 165.605C147.879 165.605 160.151 181.317 162.708 193.157Z" fill="#FFB681" stroke="#D27D1A"/>
<path d="M192.28 130.571C193.644 129.494 195.007 127.378 195.406 125.417C197.514 115.063 192.872 100.827 176.453 95.6583C173.193 94.6323 169.469 93.9637 165.242 93.7537C160.031 93.4948 155.447 94.4798 151.655 96.3508C149.36 97.4836 147.355 98.9411 145.678 100.644C139.476 106.941 137.863 117.759 142.482 126.746L173.369 120.842L192.28 130.571Z" fill="#EB5151"/>
<path d="M165.242 93.7537C160.031 93.4948 155.447 94.4798 151.655 96.3508M165.242 93.7537C169.469 93.9637 173.193 94.6323 176.453 95.6583M165.242 93.7537L171.93 109.82M173.369 120.842L142.482 126.746C137.863 117.759 139.476 106.941 145.678 100.644M173.369 120.842L192.28 130.571C193.644 129.494 195.007 127.378 195.406 125.417M173.369 120.842L159.524 110.743M145.678 100.644C147.355 98.9411 149.36 97.4836 151.655 96.3508M145.678 100.644L159.524 110.743M151.655 96.3508L171.93 109.82M195.406 125.417L187.486 120.156M195.406 125.417C197.514 115.063 192.872 100.827 176.453 95.6583M187.486 120.156L176.453 95.6583M187.486 120.156L171.93 109.82M159.524 110.743L140.994 120.304" stroke="#9A1818"/>
<path d="M178.32 128.152C178.528 133.384 184.116 141.832 188.323 136.784C191.082 133.473 185.693 128.452 180.44 128.045C179.724 127.99 179.01 128.02 178.32 128.152Z" fill="#398B46"/>
<path d="M145.163 100.988L178.32 128.152C179.01 128.02 179.724 127.99 180.44 128.045L145.815 100.319L145.163 100.988Z" fill="#398B46"/>
<path d="M178.32 128.152L145.163 100.988L145.815 100.319L180.44 128.045M178.32 128.152C178.528 133.384 184.116 141.832 188.323 136.784C191.082 133.473 185.693 128.452 180.44 128.045M178.32 128.152C179.01 128.02 179.724 127.99 180.44 128.045" stroke="#19562A"/>
<path d="M0 260H260V198.367L242.648 204.582L195.427 186.972L149.344 201.733L105.536 186.972L71.9694 201.733L26.4551 186.972L0 192.669V260Z" fill="#67A0D5"/>
<path d="M0.5 186C7.15998 179.277 21.9128 170.725 40.3291 186.861C58.7454 202.998 78.6964 193.585 86.3698 186.861C93.0298 180.138 110.954 170.725 129.37 186.861C147.786 202.998 167.737 193.585 175.411 186.861C182.071 180.138 199.995 170.725 218.411 186.861C236.828 202.998 251.827 196.223 259.5 189.5V203C251.827 209.723 236.828 217.577 218.411 201.441C199.995 185.305 182.071 194.717 175.411 201.441C167.737 208.164 147.786 217.577 129.37 201.441C110.954 185.305 93.0298 194.717 86.3699 201.441C78.6964 208.164 58.7454 217.577 40.3291 201.441C21.9128 185.305 7.15998 193.777 0.5 200.5V186Z" fill="#84CFF9"/>
<path d="M0.5 186L0.144774 185.648L0 185.794V186H0.5ZM40.3291 186.861L40.6586 186.485L40.6586 186.485L40.3291 186.861ZM86.3698 186.861L86.6993 187.237L86.7126 187.226L86.725 187.213L86.3698 186.861ZM129.37 186.861L129.041 187.238L129.041 187.238L129.37 186.861ZM175.411 186.861L175.74 187.238L175.754 187.226L175.766 187.213L175.411 186.861ZM218.411 186.861L218.741 186.485L218.741 186.485L218.411 186.861ZM259.5 189.5H260V188.397L259.17 189.124L259.5 189.5ZM0.5 200.5H0V201.715L0.855226 200.852L0.5 200.5ZM40.3291 201.441L40.6586 201.065L40.6586 201.065L40.3291 201.441ZM86.3699 201.441L86.6994 201.817L86.7126 201.805L86.7251 201.793L86.3699 201.441ZM129.37 201.441L129.7 201.065L129.7 201.065L129.37 201.441ZM175.411 201.441L175.74 201.817L175.754 201.805L175.766 201.793L175.411 201.441ZM259.5 203L259.83 203.376L260 203.227V203H259.5ZM0.855226 186.352C4.13804 183.038 9.3967 179.294 16.0757 178.353C22.7314 177.416 30.8821 179.249 39.9996 187.237L40.6586 186.485C31.3597 178.338 22.9259 176.378 15.9362 177.363C8.96967 178.345 3.52194 182.239 0.144774 185.648L0.855226 186.352ZM39.9996 187.237C49.3261 195.409 59.0672 197.124 67.4486 195.929C75.8084 194.736 82.8018 190.652 86.6993 187.237L86.0403 186.485C82.2644 189.794 75.4455 193.778 67.3074 194.939C59.1909 196.097 49.7484 194.45 40.6586 186.485L39.9996 187.237ZM86.725 187.213C89.9927 183.915 96.0449 179.941 103.538 178.783C111.006 177.629 119.943 179.266 129.041 187.238L129.7 186.485C120.381 178.321 111.148 176.596 103.385 177.795C95.6468 178.99 89.4069 183.085 86.0146 186.51L86.725 187.213ZM129.041 187.238C138.367 195.409 148.108 197.124 156.49 195.929C164.85 194.736 171.843 190.652 175.74 187.238L175.081 186.485C171.305 189.794 164.487 193.778 156.348 194.939C148.232 196.097 138.789 194.45 129.7 186.485L129.041 187.238ZM175.766 187.213C179.034 183.915 185.086 179.941 192.579 178.783C200.047 177.629 208.984 179.266 218.082 187.238L218.741 186.485C209.422 178.321 200.189 176.596 192.426 177.795C184.688 178.99 178.448 183.085 175.056 186.51L175.766 187.213ZM218.082 187.238C227.372 195.378 235.854 197.78 243.021 197.252C250.173 196.724 255.94 193.284 259.83 189.876L259.17 189.124C255.387 192.439 249.818 195.748 242.947 196.254C236.093 196.76 227.867 194.481 218.741 186.485L218.082 187.238ZM0.855226 200.852C4.13729 197.539 9.39544 193.815 16.0743 192.893C22.7303 191.975 30.8817 193.828 39.9996 201.817L40.6586 201.065C31.3602 192.918 22.927 190.938 15.9376 191.903C8.97094 192.864 3.5227 196.738 0.144774 200.148L0.855226 200.852ZM39.9996 201.817C49.3261 209.989 59.0672 211.704 67.4486 210.508C75.8085 209.316 82.8019 205.232 86.6994 201.817L86.0403 201.065C82.2644 204.373 75.4455 208.357 67.3074 209.518C59.1909 210.676 49.7484 209.029 40.6586 201.065L39.9996 201.817ZM86.7251 201.793C89.9927 198.494 96.0449 194.52 103.538 193.363C111.006 192.209 119.943 193.845 129.041 201.817L129.7 201.065C120.381 192.9 111.148 191.175 103.385 192.374C95.6468 193.57 89.4069 197.664 86.0146 201.089L86.7251 201.793ZM129.041 201.817C138.367 209.989 148.108 211.704 156.49 210.508C164.85 209.316 171.843 205.232 175.74 201.817L175.081 201.065C171.305 204.373 164.487 208.358 156.349 209.518C148.232 210.676 138.789 209.029 129.7 201.065L129.041 201.817ZM175.766 201.793C179.034 198.494 185.086 194.52 192.579 193.363C200.047 192.209 208.984 193.845 218.082 201.817L218.741 201.065C209.422 192.9 200.189 191.175 192.426 192.374C184.688 193.57 178.448 197.664 175.056 201.089L175.766 201.793ZM218.082 201.817C227.379 209.963 235.868 212.095 243.04 211.29C250.19 210.487 255.951 206.775 259.83 203.376L259.17 202.624C255.376 205.949 249.8 209.525 242.928 210.296C236.078 211.065 227.86 209.055 218.741 201.065L218.082 201.817ZM259 189.5V203H260V189.5H259ZM0 186V200.5H1V186H0Z" fill="#67A0D5"/>
<path d="M0.5 230.5C7.15999 223.777 21.9128 215.267 40.3291 231.403C58.7454 247.539 78.6964 238.127 86.3699 231.403C93.0299 224.68 110.954 215.267 129.37 231.403C147.786 247.539 167.737 238.127 175.411 231.403C182.071 224.68 199.995 215.267 218.411 231.403C236.828 247.539 251.827 239.723 259.5 233V248.5C251.827 255.223 236.828 263.077 218.411 246.941C199.995 230.805 182.071 240.218 175.411 246.941C167.737 253.664 147.786 263.077 129.37 246.941C110.954 230.805 93.0298 240.218 86.3699 246.941C78.6964 253.664 58.7454 263.077 40.3291 246.941C21.9128 230.805 7.15999 239.277 0.5 246V230.5Z" fill="#84CFF9"/>
<path d="M0.5 230.5L0.144774 230.148L0 230.294V230.5H0.5ZM40.3291 231.403L39.9996 231.779L39.9996 231.779L40.3291 231.403ZM86.3699 231.403L86.6994 231.779L86.7127 231.768L86.7251 231.755L86.3699 231.403ZM129.37 231.403L129.7 231.027L129.7 231.027L129.37 231.403ZM175.411 231.403L175.74 231.779L175.754 231.768L175.766 231.755L175.411 231.403ZM259.5 233H260V231.897L259.17 232.624L259.5 233ZM0.5 246H0V247.215L0.855226 246.352L0.5 246ZM40.3291 246.941L39.9996 247.317L39.9996 247.317L40.3291 246.941ZM86.3699 246.941L86.6994 247.317L86.7127 247.305L86.7251 247.293L86.3699 246.941ZM129.37 246.941L129.7 246.565L129.7 246.565L129.37 246.941ZM175.411 246.941L175.74 247.317L175.754 247.305L175.766 247.293L175.411 246.941ZM259.5 248.5L259.83 248.876L260 248.727V248.5H259.5ZM0.855226 230.852C4.13765 227.538 9.39604 223.805 16.0749 222.874C22.7309 221.947 30.8819 223.79 39.9996 231.779L40.6586 231.027C31.36 222.88 22.9265 220.91 15.9369 221.884C8.97034 222.855 3.52234 226.738 0.144774 230.148L0.855226 230.852ZM39.9996 231.779C49.3261 239.951 59.0672 241.666 67.4487 240.471C75.8085 239.278 82.8019 235.194 86.6994 231.779L86.0404 231.027C82.2644 234.336 75.4456 238.32 67.3074 239.481C59.1909 240.638 49.7484 238.992 40.6586 231.027L39.9996 231.779ZM86.7251 231.755C89.9928 228.456 96.0449 224.483 103.538 223.325C111.006 222.171 119.943 223.808 129.041 231.779L129.7 231.027C120.381 222.862 111.148 221.137 103.385 222.337C95.6468 223.532 89.407 227.627 86.0146 231.051L86.7251 231.755ZM129.041 231.779C138.367 239.951 148.108 241.666 156.49 240.471C164.85 239.278 171.843 235.194 175.74 231.779L175.081 231.027C171.305 234.336 164.487 238.32 156.349 239.481C148.232 240.638 138.789 238.992 129.7 231.027L129.041 231.779ZM175.766 231.755C179.034 228.456 185.086 224.483 192.579 223.325C200.047 222.171 208.984 223.808 218.082 231.779L218.741 231.027C209.423 222.862 200.189 221.137 192.426 222.337C184.688 223.532 178.448 227.627 175.056 231.051L175.766 231.755ZM218.082 231.779C227.378 239.925 235.868 242.066 243.039 241.271C250.19 240.478 255.95 236.775 259.83 233.376L259.17 232.624C255.376 235.949 249.801 239.515 242.929 240.277C236.079 241.037 227.86 239.018 218.741 231.027L218.082 231.779ZM0.855226 246.352C4.13729 243.039 9.39544 239.315 16.0743 238.393C22.7303 237.475 30.8817 239.328 39.9996 247.317L40.6586 246.565C31.3602 238.418 22.927 236.438 15.9376 237.403C8.97094 238.364 3.5227 242.238 0.144774 245.648L0.855226 246.352ZM39.9996 247.317C49.3261 255.489 59.0672 257.204 67.4487 256.008C75.8085 254.816 82.8019 250.732 86.6994 247.317L86.0404 246.565C82.2644 249.873 75.4456 253.858 67.3074 255.018C59.1909 256.176 49.7484 254.529 40.6586 246.565L39.9996 247.317ZM86.7251 247.293C89.9928 243.994 96.0449 240.02 103.538 238.863C111.006 237.709 119.943 239.345 129.041 247.317L129.7 246.565C120.381 238.4 111.148 236.675 103.385 237.875C95.6468 239.07 89.407 243.165 86.0146 246.589L86.7251 247.293ZM129.041 247.317C138.367 255.489 148.108 257.204 156.49 256.008C164.85 254.816 171.843 250.732 175.74 247.317L175.081 246.565C171.305 249.873 164.487 253.858 156.349 255.018C148.232 256.176 138.789 254.529 129.7 246.565L129.041 247.317ZM175.766 247.293C179.034 243.994 185.086 240.02 192.579 238.863C200.047 237.709 208.984 239.345 218.082 247.317L218.741 246.565C209.423 238.4 200.189 236.675 192.426 237.875C184.688 239.07 178.448 243.165 175.056 246.589L175.766 247.293ZM218.082 247.317C227.379 255.463 235.868 257.595 243.04 256.79C250.19 255.987 255.951 252.275 259.83 248.876L259.17 248.124C255.376 251.449 249.8 255.025 242.928 255.796C236.078 256.565 227.86 254.555 218.741 246.565L218.082 247.317ZM0 230.5V246H1V230.5H0ZM260 248.5V233H259V248.5H260Z" fill="#67A0D5"/>
</svg>
