<svg width="147" height="162" viewBox="0 0 147 162" fill="none" xmlns="http://www.w3.org/2000/svg">
<path fill-rule="evenodd" clip-rule="evenodd" d="M84.5745 121H24C29.1978 116.201 42.489 104.498 47.9899 92.8059C52.7879 82.608 54.5871 52.0144 58.7853 43.6162C65.9823 34.0182 87.9331 18.3015 103.766 13.0226C111.563 12.8227 126.917 13.8624 125.957 19.6212C124.997 25.38 109.164 25.2201 101.367 24.4202C95.7698 26.6198 82.2954 34.6181 73.1793 49.0151C71.1801 63.612 68.3813 93.6457 73.1793 97.005C77.9773 100.364 82.7752 93.6057 84.5745 90.4064H103.766L113.362 98.2048C111.363 99.4045 107.365 102.164 107.365 103.604C107.365 105.403 106.765 107.803 106.165 108.403C105.686 108.883 103.966 107.403 103.167 106.603C98.3687 110.202 96.8093 108.763 95.3699 110.202C93.5707 112.002 91.1717 109.602 89.9722 105.403C85.774 100.004 81.5757 111.402 82.1755 113.802L84.5745 121Z" fill="#FFB681" stroke="#D27D1A"/>
<path d="M114 98C114.626 97.1313 115.494 96.6062 116 95.5C119.205 88.4989 117.414 77.1368 102.419 73.5289C99.3575 72.7921 96.4976 72.856 93.9874 73.5289C92.4677 73.9363 91.0762 74.5669 89.8456 75.3782C85.2949 78.3786 82.9459 83.8506 84.4569 89.644L103.5 90L114 98Z" fill="#EB5151"/>
<path d="M103.5 90L84.4569 89.644C82.9459 83.8506 85.2949 78.3786 89.8456 75.3782M103.5 90L114 98C114.626 97.1313 115.494 96.6062 116 95.5M103.5 90L89.8456 75.3782M89.8456 75.3782C91.0762 74.5669 92.4677 73.9363 93.9874 73.5289M93.9874 73.5289C96.4976 72.856 99.3575 72.7921 102.419 73.5289C117.414 77.1368 119.205 88.4989 116 95.5M93.9874 73.5289L116 95.5" stroke="#9A1818"/>
<path d="M105.47 95.1879C104.875 98.2827 107.036 103.869 110.229 101.378C112.609 99.5206 109.039 95.1879 105.47 95.1879Z" fill="#398B46"/>
<path d="M90 76L105.47 95.1879M105.47 95.1879C104.875 98.2827 107.036 103.869 110.229 101.378C112.609 99.5206 109.039 95.1879 105.47 95.1879Z" stroke="#19562A"/>
<path d="M50 99.1481C51.1073 94.8412 54.1525 86.389 57.4744 87.035C61.6269 87.8425 61.6269 109.646 50 99.1481Z" fill="#ED8B41" stroke="#D27D1A"/>
<path d="M0.5 115C4.23984 110.85 12.8049 105.539 23.1463 115.5C33.4878 125.461 44.6911 119.65 49 115.5" stroke="#1838DE"/>
<path d="M49 115.5C52.7398 111.35 62.8049 105.539 73.1463 115.5C83.4878 125.461 94.6911 119.65 99 115.5" stroke="#1838DE"/>
<path d="M99 115.5C102.74 111.35 112.805 105.539 123.146 115.5C133.488 125.461 142.191 121.15 146.5 117" stroke="#1838DE"/>
<path d="M0.500015 124C4.23985 119.85 12.8049 114.539 23.1464 124.5C33.4878 134.461 44.6911 128.65 49 124.5" stroke="#1838DE"/>
<path d="M49 124.5C52.7399 120.35 62.8049 114.539 73.1464 124.5C83.4878 134.461 94.6911 128.65 99 124.5" stroke="#1838DE"/>
<path d="M99 124.5C102.74 120.35 112.805 114.539 123.146 124.5C133.488 134.461 142.191 129.65 146.5 125.5" stroke="#1838DE"/>
<path d="M0.5 149.5C4.23984 145.35 12.8049 140.539 23.1463 150.5C33.4878 160.461 44.6911 154.65 49 150.5" stroke="#1838DE"/>
<path d="M49 150.5C52.7398 146.35 62.8049 140.539 73.1463 150.5C83.4878 160.461 94.6911 154.65 99 150.5" stroke="#1838DE"/>
<path d="M99 150.5C102.74 146.35 112.805 140.539 123.146 150.5C133.488 160.461 142.191 155.65 146.5 151.5" stroke="#1838DE"/>
<path d="M146.5 161H0.5V0.5H146.5V161Z" stroke="#1838DE"/>
</svg>
