<svg width="682" height="702" viewBox="0 0 682 702" fill="none" xmlns="http://www.w3.org/2000/svg">
<path d="M1 701H681V535.064L635.617 551.797L512.116 504.386L391.591 544.127L277.018 504.386L189.228 544.127L70.1904 504.386L1 519.725V701Z" fill="#7573D8"/>
<path d="M681 1H1V519.725L70.1904 504.386L189.228 544.127L277.018 504.386L391.591 544.127L512.116 504.386L635.617 551.797L681 535.064V1Z" fill="#7573D8"/>
<path d="M1 519.725V1H681V535.064M1 519.725V701H681V535.064M1 519.725L70.1904 504.386L189.228 544.127L277.018 504.386L391.591 544.127L512.116 504.386L635.617 551.797L681 535.064" stroke="#1838DE"/>
<path d="M406.293 423.951C353.176 352.717 423.998 298.104 568.17 117.645C571.542 115.27 569.872 111.07 588.405 134.266C603.581 153.262 602.737 135.849 595.993 117.645C610.325 106.564 641.521 81.0778 631.403 77.2786C628.874 74.9042 616.733 75.3791 588.405 96.2743C580.817 98.6489 565.641 96.2743 560.582 98.6489C525.171 115.271 434.115 260.113 363.294 229.244V207.874C370.039 202.334 383.023 188.404 380.999 177.006C388.587 169.883 399.716 155.161 383.528 153.262C367.341 151.362 347.275 136.64 343.059 129.517C338 137.432 322.824 153.262 302.59 153.262C284.379 147.563 295.002 166.717 302.59 177.006C300.566 192.203 310.178 203.917 315.236 207.874V229.244C244.415 260.113 155.341 113.871 119.93 97.249C114.872 94.8744 99.6955 97.249 92.1075 94.8744C63.779 73.9791 51.6382 73.5042 49.1088 75.8786C38.9915 79.6778 70.1866 105.164 84.5195 116.245C77.7746 134.449 76.9315 151.862 92.1075 132.866C110.64 109.67 108.97 113.87 112.342 116.245C256.514 296.704 327.336 351.317 274.22 422.551C267.557 432.828 314.807 483.17 340.53 507.057C389.093 459.568 405.449 431.866 406.293 423.951Z" fill="#FFB681"/>
<path d="M274.22 422.551C260.055 441.546 256.514 479.538 256.514 496.159L259.591 578.291H320.295L330.412 552.172L340.53 507.057C314.807 483.17 267.557 432.828 274.22 422.551Z" fill="#FFB681"/>
<path d="M423.998 497.559C423.998 480.938 420.457 442.946 406.293 423.951C405.449 431.866 389.093 459.568 340.53 507.057L348.118 552.172L360.764 578.291H421.468L423.998 497.559Z" fill="#FFB681"/>
<path d="M423.998 497.559L424.498 497.575L424.498 497.567V497.559H423.998ZM568.17 117.645L567.882 117.236L567.824 117.277L567.779 117.333L568.17 117.645ZM588.405 134.266L588.014 134.578L588.405 134.266ZM595.993 117.645L595.687 117.249L595.396 117.474L595.524 117.818L595.993 117.645ZM631.403 77.2786L631.061 77.6432L631.134 77.7116L631.227 77.7467L631.403 77.2786ZM588.405 96.2743L588.554 96.7515L588.634 96.7265L588.701 96.6767L588.405 96.2743ZM560.582 98.6489L560.794 99.1016L560.794 99.1016L560.582 98.6489ZM363.294 229.244H362.794V229.572L363.094 229.703L363.294 229.244ZM256.514 496.159H256.014V496.168L256.015 496.178L256.514 496.159ZM112.342 116.245L112.733 115.933L112.688 115.877L112.63 115.836L112.342 116.245ZM92.1075 132.866L92.4982 133.178L92.1075 132.866ZM84.5195 116.245L84.9884 116.418L85.116 116.074L84.8253 115.849L84.5195 116.245ZM49.1088 75.8786L49.2846 76.3467L49.3782 76.3116L49.451 76.2432L49.1088 75.8786ZM92.1075 94.8744L91.8107 95.2767L91.8782 95.3265L91.9582 95.3515L92.1075 94.8744ZM119.93 97.249L119.718 97.7016L119.718 97.7016L119.93 97.249ZM315.236 229.244L315.436 229.703L315.736 229.572V229.244H315.236ZM363.294 207.874L362.976 207.488L362.794 207.638V207.874H363.294ZM315.236 207.874H315.736V207.631L315.544 207.48L315.236 207.874ZM380.999 177.006L380.657 176.642L380.459 176.827L380.507 177.094L380.999 177.006ZM343.059 129.517L343.489 129.262L343.075 128.563L342.638 129.248L343.059 129.517ZM302.59 153.262L302.44 153.739L302.513 153.762H302.59V153.262ZM302.59 177.006L303.085 177.072L303.112 176.872L302.992 176.71L302.59 177.006ZM320.295 578.291V578.791H320.638L320.761 578.471L320.295 578.291ZM259.591 578.291L259.091 578.309L259.109 578.791H259.591V578.291ZM360.764 578.291L360.314 578.509L360.451 578.791H360.764V578.291ZM421.468 578.291V578.791H421.953L421.968 578.306L421.468 578.291ZM348.118 552.172L347.625 552.255L347.637 552.325L347.668 552.39L348.118 552.172ZM330.412 552.172L330.879 552.352L330.892 552.317L330.9 552.281L330.412 552.172ZM424.498 497.559C424.498 489.221 423.61 475.536 420.948 461.552C418.288 447.582 413.845 433.243 406.693 423.652L405.892 424.25C412.904 433.654 417.314 447.808 419.966 461.739C422.615 475.655 423.498 489.276 423.498 497.559H424.498ZM406.693 423.652C393.47 405.917 387.991 389.265 389.402 371.455C390.815 353.621 399.141 334.56 413.668 312.028C428.194 289.499 448.885 263.549 474.97 231.937C501.05 200.332 532.514 163.076 568.561 117.957L567.779 117.333C531.739 162.443 500.287 199.686 474.199 231.301C448.117 262.909 427.39 288.901 412.828 311.486C398.268 334.069 389.837 353.297 388.405 371.376C386.97 389.48 392.557 406.367 405.892 424.25L406.693 423.652ZM568.458 118.054C568.913 117.733 569.281 117.383 569.591 117.089C569.915 116.782 570.158 116.556 570.406 116.407C570.633 116.27 570.847 116.21 571.11 116.241C571.393 116.274 571.778 116.416 572.324 116.782C573.425 117.518 575.021 119.048 577.524 121.88C580.018 124.701 583.382 128.78 588.014 134.578L588.795 133.954C584.161 128.154 580.784 124.059 578.274 121.218C575.772 118.388 574.1 116.767 572.88 115.951C572.267 115.54 571.728 115.306 571.226 115.247C570.704 115.187 570.271 115.321 569.89 115.55C569.531 115.766 569.207 116.076 568.904 116.363C568.588 116.662 568.27 116.963 567.882 117.236L568.458 118.054ZM588.014 134.578C589.92 136.965 591.584 138.791 593.025 140.12C594.46 141.444 595.7 142.299 596.761 142.709C597.831 143.123 598.789 143.105 599.545 142.56C600.271 142.038 600.689 141.113 600.909 140.003C601.351 137.773 601.069 134.4 600.277 130.494C599.48 126.568 598.155 122.041 596.461 117.471L595.524 117.818C597.203 122.35 598.512 126.827 599.297 130.692C600.085 134.577 600.33 137.784 599.928 139.808C599.727 140.825 599.381 141.446 598.961 141.749C598.571 142.029 598.001 142.117 597.121 141.776C596.232 141.432 595.101 140.674 593.703 139.385C592.312 138.101 590.683 136.317 588.795 133.954L588.014 134.578ZM596.298 118.04C603.467 112.498 614.87 103.341 623.218 95.0866C627.385 90.9672 630.828 87.0369 632.591 83.8738C633.467 82.3008 633.972 80.8424 633.873 79.6092C633.822 78.9794 633.613 78.4062 633.218 77.9208C632.826 77.4386 632.274 77.0714 631.579 76.8105L631.227 77.7467C631.797 77.9608 632.187 78.2378 632.442 78.5518C632.695 78.8625 632.839 79.2373 632.876 79.6896C632.951 80.6206 632.567 81.8632 631.717 83.387C630.029 86.4172 626.674 90.2634 622.515 94.3755C614.212 102.584 602.85 111.711 595.687 117.249L596.298 118.04ZM631.745 76.9141C630.973 76.1886 629.579 75.7686 627.592 75.8067C625.585 75.8451 622.89 76.3508 619.412 77.5789C612.455 80.0354 602.293 85.4087 588.108 95.872L588.701 96.6767C602.844 86.2447 612.917 80.9329 619.745 78.5218C623.16 77.3161 625.745 76.8422 627.611 76.8065C629.496 76.7704 630.569 77.1814 631.061 77.6432L631.745 76.9141ZM588.255 95.7972C584.551 96.9563 578.952 96.9616 573.545 96.9616C570.862 96.9616 568.236 96.9614 565.963 97.1111C563.706 97.2599 561.726 97.5595 560.369 98.1963L560.794 99.1016C561.967 98.5511 563.781 98.2571 566.029 98.109C568.262 97.9619 570.853 97.9616 573.545 97.9616C578.887 97.9616 584.67 97.967 588.554 96.7515L588.255 95.7972ZM560.369 98.1963C555.871 100.308 550.529 104.433 544.506 109.93C538.474 115.434 531.726 122.346 524.413 130.064C509.78 145.509 492.881 164.191 474.871 181.394C456.861 198.598 437.776 214.288 418.795 223.751C399.817 233.214 381.011 236.421 363.494 228.786L363.094 229.703C380.987 237.502 400.121 234.18 419.241 224.646C438.358 215.115 457.53 199.342 475.562 182.117C493.596 164.891 510.527 146.174 525.139 130.752C532.449 123.036 539.177 116.146 545.18 110.668C551.191 105.183 556.44 101.145 560.794 99.1016L560.369 98.1963ZM257.014 496.159C257.014 487.876 257.897 474.255 260.546 460.339C263.198 446.409 267.608 432.254 274.62 422.85L273.819 422.252C266.667 431.843 262.224 446.182 259.564 460.152C256.902 474.136 256.014 487.821 256.014 496.159H257.014ZM274.62 422.85C287.955 404.967 293.542 388.08 292.107 369.976C290.675 351.897 282.244 332.669 267.684 310.086C253.122 287.501 232.395 261.509 206.313 229.901C180.225 198.286 148.773 161.043 112.733 115.933L111.952 116.557C147.998 161.676 179.462 198.932 205.542 230.537C231.627 262.149 252.318 288.099 266.844 310.628C281.371 333.16 289.697 352.221 291.11 370.055C292.521 387.865 287.042 404.517 273.819 422.252L274.62 422.85ZM112.63 115.836C112.242 115.563 111.924 115.262 111.608 114.963C111.305 114.676 110.981 114.366 110.622 114.15C110.241 113.921 109.808 113.787 109.286 113.847C108.784 113.906 108.245 114.14 107.632 114.551C106.412 115.367 104.74 116.988 102.239 119.818C99.7277 122.659 96.3508 126.754 91.7169 132.554L92.4982 133.178C97.1303 127.38 100.494 123.301 102.988 120.48C105.491 117.648 107.087 116.118 108.188 115.382C108.734 115.016 109.119 114.874 109.402 114.841C109.665 114.81 109.879 114.87 110.106 115.007C110.354 115.156 110.597 115.382 110.921 115.689C111.231 115.983 111.599 116.333 112.054 116.654L112.63 115.836ZM91.7169 132.554C89.8294 134.917 88.2001 136.701 86.8086 137.985C85.4114 139.274 84.2801 140.032 83.3906 140.376C82.5113 140.717 81.9407 140.629 81.5513 140.349C81.1307 140.046 80.7851 139.425 80.5836 138.408C80.1825 136.384 80.4274 133.177 81.2155 129.292C81.9999 125.427 83.3093 120.95 84.9884 116.418L84.0507 116.071C82.3573 120.641 81.032 125.168 80.2355 129.094C79.4428 133 79.1608 136.373 79.6027 138.603C79.8228 139.713 80.2413 140.638 80.9668 141.16C81.7235 141.705 82.6811 141.723 83.7514 141.309C84.8116 140.899 86.0516 140.044 87.4867 138.72C88.9276 137.391 90.5916 135.565 92.4982 133.178L91.7169 132.554ZM84.8253 115.849C77.6616 110.311 66.2998 101.184 57.9969 92.9755C53.8377 88.8634 50.4834 85.0172 48.7947 81.987C47.9455 80.4632 47.561 79.2207 47.6361 78.2896C47.6726 77.8373 47.8169 77.4625 48.0696 77.1518C48.325 76.8378 48.7146 76.5608 49.2846 76.3467L48.9331 75.4106C48.2384 75.6714 47.6861 76.0387 47.2939 76.5208C46.899 77.0062 46.6901 77.5794 46.6393 78.2092C46.5399 79.4424 47.0446 80.9008 47.9212 82.4738C49.6839 85.6369 53.1272 89.5672 57.2938 93.6866C65.6423 101.941 77.0446 111.098 84.2137 116.64L84.8253 115.849ZM49.451 76.2432C49.9429 75.7814 51.0158 75.3704 52.9012 75.4065C54.7674 75.4423 57.3525 75.9161 60.767 77.1218C67.5951 79.5329 77.6676 84.8447 91.8107 95.2767L92.4043 94.472C78.2189 84.0087 68.0567 78.6354 61.1 76.1789C57.6221 74.9508 54.9271 74.4451 52.9203 74.4067C50.9326 74.3686 49.5394 74.7887 48.7666 75.5141L49.451 76.2432ZM91.9582 95.3515C95.8423 96.567 101.625 96.5617 106.967 96.5617C109.659 96.5617 112.25 96.5619 114.483 96.709C116.731 96.8571 118.545 97.1511 119.718 97.7016L120.143 96.7963C118.786 96.1595 116.806 95.8599 114.549 95.7112C112.276 95.5614 109.65 95.5617 106.967 95.5617C101.56 95.5617 95.9607 95.5563 92.2568 94.3972L91.9582 95.3515ZM119.718 97.7016C124.07 99.7446 129.288 103.802 135.244 109.326C141.192 114.841 147.843 121.785 155.06 129.567C169.486 145.12 186.169 164.012 203.955 181.413C221.739 198.813 240.663 214.762 259.594 224.425C278.53 234.091 297.541 237.502 315.436 229.703L315.037 228.786C297.521 236.421 278.84 233.127 260.049 223.535C241.254 213.941 222.417 198.078 204.654 180.698C186.892 163.32 170.241 144.464 155.793 128.887C148.573 121.102 141.902 114.135 135.924 108.592C129.955 103.057 124.643 98.9088 120.143 96.7963L119.718 97.7016ZM363.794 229.244V207.874H362.794V229.244H363.794ZM315.736 229.244V207.874H314.736V229.244H315.736ZM363.611 208.261C367.012 205.467 371.979 200.565 375.847 194.919C379.701 189.294 382.539 182.82 381.491 176.919L380.507 177.094C381.483 182.59 378.841 188.78 375.022 194.354C371.218 199.907 366.32 204.741 362.976 207.488L363.611 208.261ZM381.341 177.371C385.149 173.797 389.902 168.268 391.651 163.342C392.526 160.876 392.686 158.452 391.452 156.504C390.219 154.558 387.695 153.247 383.587 152.765L383.47 153.758C387.456 154.226 389.611 155.468 390.607 157.039C391.602 158.608 391.54 160.665 390.708 163.008C389.043 167.699 384.438 173.093 380.657 176.642L381.341 177.371ZM383.587 152.765C375.599 151.828 366.61 147.716 359.072 142.926C355.309 140.535 351.921 137.983 349.216 135.591C346.502 133.191 344.504 130.976 343.489 129.262L342.629 129.772C343.722 131.62 345.813 133.916 348.553 136.34C351.302 138.77 354.733 141.353 358.536 143.77C366.132 148.597 375.27 152.796 383.47 153.758L383.587 152.765ZM342.638 129.248C340.141 133.154 335.127 139.042 328.226 143.95C321.327 148.856 312.574 152.762 302.59 152.762V153.762C312.84 153.762 321.792 149.752 328.805 144.765C335.816 139.779 340.918 133.795 343.48 129.786L342.638 129.248ZM315.544 207.48C310.564 203.584 301.094 192.027 303.085 177.072L302.094 176.94C300.038 192.378 309.792 204.25 314.928 208.268L315.544 207.48ZM302.992 176.71C299.201 171.569 294.703 164.277 293.4 159.018C292.74 156.352 292.961 154.463 294.152 153.511C294.757 153.028 295.681 152.722 297.049 152.724C298.418 152.725 300.19 153.035 302.44 153.739L302.739 152.784C300.436 152.064 298.557 151.725 297.05 151.724C295.544 151.722 294.369 152.058 293.528 152.73C291.826 154.089 291.762 156.562 292.43 159.259C293.783 164.725 298.39 172.154 302.187 177.303L302.992 176.71ZM340.87 506.69C328.021 494.758 309.792 476.216 295.612 459.378C288.521 450.957 282.456 442.979 278.582 436.476C276.644 433.222 275.268 430.361 274.581 428.012C273.886 425.641 273.93 423.916 274.639 422.823L273.8 422.279C272.843 423.754 272.906 425.852 273.621 428.293C274.343 430.759 275.766 433.703 277.723 436.987C281.638 443.56 287.744 451.588 294.848 460.023C309.058 476.897 327.316 495.469 340.189 507.423L340.87 506.69ZM405.795 423.898C405.596 425.773 404.457 428.916 402.051 433.359C399.654 437.785 396.027 443.453 390.904 450.366C380.659 464.19 364.448 482.968 340.18 506.699L340.879 507.414C365.174 483.657 381.423 464.839 391.708 450.961C396.85 444.023 400.505 438.314 402.93 433.835C405.346 429.373 406.568 426.085 406.79 424.004L405.795 423.898ZM256.015 496.178L259.091 578.309L260.091 578.272L257.014 496.14L256.015 496.178ZM259.591 578.791H320.295V577.791H259.591V578.791ZM423.498 497.543L420.969 578.275L421.968 578.306L424.498 497.575L423.498 497.543ZM421.468 577.791H360.764V578.791H421.468V577.791ZM361.214 578.073L348.568 551.954L347.668 552.39L360.314 578.509L361.214 578.073ZM348.611 552.089L341.023 506.974L340.037 507.14L347.625 552.255L348.611 552.089ZM320.761 578.471L330.879 552.352L329.946 551.991L319.829 578.11L320.761 578.471ZM330.9 552.281L341.018 507.166L340.042 506.947L329.925 552.062L330.9 552.281Z" fill="#D27D1A"/>
<path d="M301.569 154.386C301.569 138.022 306.172 104.359 324.586 100.619C324.78 98.666 325.178 96.2679 325.822 93.729C328.003 85.1252 333.009 74.9043 342.488 74.9043C351.967 74.9043 356.973 85.1252 359.154 93.729C359.798 96.2679 360.196 98.666 360.39 100.619C378.804 104.359 383.407 138.022 383.407 154.386C374.03 153.607 352.718 152.172 342.488 133.47C334.304 154.386 310.946 154.386 301.569 154.386Z" fill="#9F4C37"/>
<path d="M301.569 154.386H301.069V154.886H301.569V154.386ZM383.407 154.386L383.366 154.885L383.907 154.93V154.386H383.407ZM342.488 133.47L342.927 133.23L342.413 132.29L342.022 133.288L342.488 133.47ZM359.154 93.729L359.639 93.6061L359.154 93.729ZM325.822 93.729L325.337 93.6061L325.822 93.729ZM302.069 154.386C302.069 146.239 303.216 133.786 306.649 122.919C310.096 112.008 315.774 102.919 324.685 101.109L324.486 100.129C314.985 102.059 309.154 111.672 305.696 122.618C302.223 133.61 301.069 146.17 301.069 154.386H302.069ZM383.907 154.386C383.907 146.17 382.753 133.61 379.28 122.618C375.822 111.672 369.991 102.059 360.49 100.129L360.291 101.109C369.202 102.919 374.88 112.008 378.327 122.919C381.76 133.786 382.907 146.239 382.907 154.386H383.907ZM301.569 154.886C306.255 154.886 314.512 154.889 322.631 152.247C330.766 149.6 338.793 144.286 342.954 133.652L342.022 133.288C337.999 143.571 330.255 148.715 322.321 151.296C314.371 153.884 306.26 153.886 301.569 153.886V154.886ZM383.448 153.888C374.028 153.105 353.01 151.665 342.927 133.23L342.049 133.71C352.425 152.679 374.032 154.109 383.366 154.885L383.448 153.888ZM360.042 100.26C357.484 102.736 352.636 105.734 346.46 106.608C340.303 107.479 332.8 106.244 324.889 100.221L324.283 101.017C332.405 107.2 340.177 108.507 346.6 107.598C353.005 106.692 358.042 103.587 360.738 100.978L360.042 100.26ZM360.888 100.57C360.691 98.5915 360.289 96.1689 359.639 93.6061L358.67 93.8519C359.307 96.3669 359.701 98.7405 359.892 100.669L360.888 100.57ZM359.639 93.6061C358.54 89.2709 356.722 84.4949 353.958 80.7912C351.189 77.08 347.435 74.4043 342.488 74.4043V75.4043C347.02 75.4043 350.508 77.839 353.157 81.3892C355.811 84.947 357.587 89.5833 358.67 93.8519L359.639 93.6061ZM325.083 100.669C325.275 98.7405 325.669 96.3669 326.306 93.8519L325.337 93.6061C324.687 96.1689 324.285 98.5915 324.088 100.57L325.083 100.669ZM326.306 93.8519C327.389 89.5833 329.165 84.947 331.819 81.3892C334.468 77.839 337.956 75.4043 342.488 75.4043V74.4043C337.541 74.4043 333.787 77.08 331.018 80.7912C328.254 84.4949 326.436 89.2709 325.337 93.6061L326.306 93.8519ZM358.836 93.3431C354.466 96.9427 341.702 102.107 326.067 93.2934L325.576 94.1646C341.604 103.2 354.813 97.9522 359.472 94.1149L358.836 93.3431Z" fill="#7E3421"/>
<path d="M342.501 507.175C365.9 482.705 413.231 429.891 407.215 424.207C399.694 417.103 372.585 373.671 410.19 316.837C401.834 297.102 384.895 248.327 384.895 233.171L376.711 232.474L364.808 228.988C354.392 303.59 314.961 279.187 313.473 229.685L296.361 233.171C296.361 248.327 280.166 298.497 271.81 318.231C309.415 375.066 280.075 416.406 272.554 423.51C266.537 429.193 315.705 485.562 339.994 507.175H342.501Z" fill="#AE2929"/>
<path d="M342.501 507.175V507.675H342.715L342.863 507.521L342.501 507.175ZM407.215 424.207L407.558 423.844L407.558 423.844L407.215 424.207ZM410.19 316.837L410.607 317.113L410.756 316.889L410.651 316.642L410.19 316.837ZM384.895 233.171H385.395V232.712L384.937 232.673L384.895 233.171ZM364.808 228.988L364.948 228.508L364.392 228.345L364.312 228.919L364.808 228.988ZM339.994 507.175L339.662 507.549L339.804 507.675H339.994V507.175ZM272.554 423.51L272.21 423.146L272.21 423.146L272.554 423.51ZM271.81 318.231L271.349 318.036L271.245 318.283L271.393 318.507L271.81 318.231ZM296.361 233.171L296.261 232.681L295.861 232.763V233.171H296.361ZM313.473 229.685L313.972 229.67L313.955 229.077L313.373 229.195L313.473 229.685ZM376.711 232.474L376.571 232.954L376.619 232.968L376.669 232.972L376.711 232.474ZM342.863 507.521C354.567 495.28 372.259 475.949 386.274 458.964C393.28 450.474 399.379 442.557 403.352 436.399C405.336 433.323 406.806 430.663 407.589 428.576C407.98 427.534 408.212 426.605 408.236 425.822C408.26 425.038 408.076 424.333 407.558 423.844L406.871 424.571C407.105 424.791 407.256 425.166 407.237 425.791C407.217 426.418 407.026 427.23 406.653 428.225C405.908 430.21 404.484 432.799 402.512 435.856C398.571 441.964 392.503 449.845 385.503 458.328C371.508 475.288 353.834 494.6 342.14 506.83L342.863 507.521ZM407.558 423.844C403.887 420.376 395.275 407.846 392.274 389.092C389.277 370.365 391.874 345.425 410.607 317.113L409.773 316.561C390.902 345.083 388.25 370.276 391.287 389.25C394.318 408.196 403.021 420.934 406.871 424.571L407.558 423.844ZM410.651 316.642C406.48 306.792 400.161 289.679 394.885 273.135C392.248 264.864 389.873 256.741 388.158 249.744C386.44 242.733 385.395 236.894 385.395 233.171H384.395C384.395 237.026 385.468 242.968 387.187 249.982C388.909 257.009 391.291 265.155 393.933 273.439C399.215 290.005 405.544 307.147 409.73 317.032L410.651 316.642ZM340.327 506.802C328.206 496.017 309.86 476.541 295.293 459.049C288.01 450.302 281.684 442.066 277.557 435.67C275.492 432.468 273.992 429.75 273.195 427.671C272.795 426.63 272.584 425.779 272.552 425.124C272.52 424.468 272.67 424.088 272.897 423.873L272.21 423.146C271.685 423.643 271.514 424.369 271.553 425.173C271.592 425.979 271.844 426.943 272.261 428.029C273.096 430.205 274.64 432.992 276.717 436.212C280.876 442.659 287.232 450.931 294.525 459.689C309.111 477.205 327.493 496.72 339.662 507.549L340.327 506.802ZM272.897 423.873C276.73 420.253 285.999 408.049 289.595 389.615C293.195 371.157 291.1 346.48 272.227 317.955L271.393 318.507C290.124 346.817 292.162 371.227 288.613 389.424C285.06 407.644 275.898 419.663 272.21 423.146L272.897 423.873ZM272.27 318.426C276.458 308.536 282.602 291.042 287.698 274.129C290.246 265.67 292.535 257.35 294.187 250.193C295.836 243.049 296.861 237.023 296.861 233.171H295.861C295.861 236.898 294.862 242.826 293.213 249.968C291.567 257.097 289.285 265.395 286.74 273.84C281.65 290.734 275.518 308.191 271.349 318.036L272.27 318.426ZM296.461 233.661L313.573 230.175L313.373 229.195L296.261 232.681L296.461 233.661ZM312.973 229.7C313.347 242.137 316.104 253.017 320.21 261.176C324.307 269.315 329.791 274.825 335.666 276.359C341.606 277.911 347.751 275.356 353.012 267.817C358.262 260.294 362.694 247.741 365.303 229.057L364.312 228.919C361.713 247.536 357.311 259.909 352.192 267.245C347.083 274.565 341.324 276.803 335.919 275.392C330.447 273.963 325.144 268.753 321.103 260.726C317.072 252.718 314.343 241.984 313.972 229.67L312.973 229.7ZM342.501 506.675H339.994V507.675H342.501V506.675ZM384.937 232.673L376.754 231.976L376.669 232.972L384.853 233.669L384.937 232.673ZM376.852 231.994L364.948 228.508L364.667 229.468L376.571 232.954L376.852 231.994Z" fill="#B01313"/>
<path d="M329.512 342.725C353.114 325.82 381.222 319.072 403.26 317.626C339.203 331.169 299.851 383.639 282.069 439.453C283.715 391.16 304.002 360.996 329.512 342.725Z" fill="#FFDFDF" stroke="#FFDFDF"/>
<path d="M396.139 303.13C356.64 304.353 314.503 319.029 290.74 361.895C296.471 334.637 317.682 319.152 341.089 310.958C360.589 304.131 381.542 302.395 396.139 303.13Z" fill="#FFDFDF" stroke="#FFDFDF"/>
<path d="M1 701H681V535.064L635.617 551.797L512.116 504.386L391.591 544.127L277.018 504.386L189.228 544.127L70.1904 504.386L1 519.725V701Z" fill="#67A0D5"/>
<path d="M1 519.725V1H681V535.064M1 519.725V701H681V535.064M1 519.725L70.1904 504.386L189.228 544.127L277.018 504.386L391.591 544.127L512.116 504.386L635.617 551.797L681 535.064" stroke="#1838DE"/>
<path d="M1 501.908C18.4184 483.806 58.3104 460.645 106.476 504.088C154.642 547.532 206.821 522.19 226.89 504.088C244.309 485.987 291.187 460.645 339.353 504.088C387.518 547.532 439.698 522.19 459.767 504.088C477.185 485.987 524.064 460.645 572.229 504.088C620.395 547.532 660.931 528.732 681 510.63L681 547.702C660.931 565.804 620.395 586.784 572.23 543.341C524.064 499.897 477.186 525.239 459.767 543.341C439.698 561.442 387.519 586.785 339.353 543.341C291.187 499.897 244.309 525.239 226.89 543.341C206.821 561.442 154.642 586.784 106.476 543.341C58.3105 499.897 18.4185 523.059 1.00007 541.16L1 501.908Z" fill="#84CFF9"/>
<path d="M1 501.908L0.639714 501.561L0.5 501.706L0.5 501.908L1 501.908ZM106.476 504.088L106.811 503.717L106.811 503.717L106.476 504.088ZM226.89 504.088L227.225 504.46L227.238 504.448L227.251 504.435L226.89 504.088ZM339.353 504.088L339.018 504.46L339.018 504.46L339.353 504.088ZM459.767 504.088L460.102 504.46L460.115 504.448L460.127 504.435L459.767 504.088ZM572.229 504.088L572.564 503.717L572.564 503.717L572.229 504.088ZM681 510.63L681.5 510.63L681.5 509.506L680.665 510.259L681 510.63ZM1.00007 541.16L0.500071 541.16L0.500073 542.401L1.36036 541.507L1.00007 541.16ZM106.476 543.341L106.811 542.969L106.811 542.969L106.476 543.341ZM226.89 543.341L227.225 543.712L227.238 543.7L227.251 543.687L226.89 543.341ZM339.353 543.341L339.688 542.969L339.688 542.969L339.353 543.341ZM459.767 543.341L460.102 543.712L460.115 543.7L460.127 543.687L459.767 543.341ZM572.23 543.341L571.895 543.712L571.895 543.712L572.23 543.341ZM681 547.702L681.335 548.073L681.5 547.924L681.5 547.702L681 547.702ZM1.36029 502.254C10.0202 493.255 24.2523 483.015 42.2792 480.413C60.281 477.815 82.1509 482.821 106.141 504.46L106.811 503.717C82.6356 481.912 60.4766 476.777 42.1364 479.424C23.8213 482.067 9.39823 492.459 0.639714 501.561L1.36029 502.254ZM106.141 504.46C130.342 526.288 155.581 530.851 177.292 527.663C198.98 524.478 217.131 513.565 227.225 504.46L226.556 503.717C216.581 512.714 198.607 523.522 177.147 526.673C155.71 529.821 130.776 525.333 106.811 503.717L106.141 504.46ZM227.251 504.435C235.899 495.448 251.878 484.65 271.67 481.503C291.435 478.359 315.045 482.837 339.018 504.46L339.688 503.717C315.495 481.896 291.583 477.323 271.513 480.515C251.469 483.703 235.3 494.627 226.53 503.742L227.251 504.435ZM339.018 504.46C363.219 526.288 388.457 530.851 410.169 527.663C431.857 524.478 450.007 513.565 460.102 504.46L459.432 503.717C449.458 512.714 431.484 523.522 410.024 526.673C388.587 529.821 363.653 525.333 339.688 503.717L339.018 504.46ZM460.127 504.435C468.775 495.448 484.755 484.65 504.547 481.503C524.311 478.359 547.921 482.837 571.895 504.46L572.564 503.717C548.372 481.896 524.46 477.323 504.389 480.515C484.346 483.703 468.177 494.627 459.407 503.742L460.127 504.435ZM571.895 504.46C596.062 526.258 618.369 532.483 637.192 530.937C655.996 529.393 671.247 520.101 681.335 511.002L680.665 510.259C670.684 519.262 655.632 528.42 637.11 529.941C618.606 531.46 596.562 525.362 572.564 503.717L571.895 504.46ZM1.36036 541.507C10.0203 532.507 24.2524 522.268 42.2793 519.666C60.2811 517.068 82.151 522.074 106.141 543.712L106.811 542.969C82.6356 521.164 60.4767 516.029 42.1365 518.676C23.8213 521.319 9.3983 531.711 0.639785 540.813L1.36036 541.507ZM106.141 543.712C130.342 565.54 155.581 570.103 177.292 566.915C198.98 563.73 217.131 552.817 227.225 543.712L226.556 542.969C216.581 551.966 198.607 562.774 177.147 565.926C155.71 569.073 130.776 564.585 106.811 542.969L106.141 543.712ZM227.251 543.687C235.899 534.7 251.879 523.903 271.67 520.755C291.435 517.612 315.045 522.089 339.018 543.712L339.688 542.969C315.495 521.149 291.583 516.575 271.513 519.767C251.469 522.955 235.301 533.88 226.53 542.994L227.251 543.687ZM339.018 543.712C363.219 565.54 388.457 570.103 410.169 566.915C431.857 563.73 450.007 552.817 460.102 543.712L459.432 542.969C449.458 551.966 431.484 562.775 410.024 565.926C388.587 569.073 363.653 564.585 339.688 542.969L339.018 543.712ZM460.127 543.687C468.776 534.7 484.755 523.903 504.547 520.755C524.311 517.612 547.921 522.089 571.895 543.712L572.564 542.969C548.372 521.149 524.46 516.575 504.39 519.767C484.346 522.955 468.177 533.88 459.407 542.994L460.127 543.687ZM571.895 543.712C596.067 565.515 618.381 571.193 637.206 569.098C656.01 567.005 671.255 557.165 681.335 548.073L680.665 547.331C670.676 556.341 655.619 566.042 637.096 568.104C618.595 570.163 596.557 564.61 572.564 542.969L571.895 543.712ZM680.5 510.63L680.5 547.702L681.5 547.702L681.5 510.63L680.5 510.63ZM0.5 501.908L0.500071 541.16L1.50007 541.16L1.5 501.908L0.5 501.908Z" fill="#67A0D5"/>
<path d="M1 621.828C18.4184 603.726 58.3104 580.565 106.476 624.009C154.642 667.452 206.821 642.11 226.89 624.009C244.309 605.907 291.187 580.565 339.353 624.009C387.519 667.452 439.698 642.11 459.767 624.009C477.186 605.907 524.064 580.565 572.229 624.009C620.395 667.452 660.931 646.471 681 628.37V670.203C660.931 688.304 620.395 709.285 572.229 665.841C524.064 622.397 477.186 647.74 459.767 665.841C439.698 683.943 387.519 709.285 339.353 665.841C291.187 622.397 244.309 647.74 226.89 665.841C206.821 683.943 154.642 709.285 106.476 665.841C58.3104 622.398 18.4184 645.559 1 663.661V621.828Z" fill="#84CFF9"/>
<path d="M1 621.828L0.639714 621.481L0.5 621.626V621.828H1ZM106.476 624.009L106.141 624.38L106.141 624.38L106.476 624.009ZM226.89 624.009L227.225 624.38L227.238 624.368L227.251 624.355L226.89 624.009ZM339.353 624.009L339.688 623.637L339.688 623.637L339.353 624.009ZM459.767 624.009L460.102 624.38L460.115 624.368L460.127 624.355L459.767 624.009ZM572.229 624.009L572.564 623.637L572.564 623.637L572.229 624.009ZM681 628.37H681.5V627.246L680.665 627.999L681 628.37ZM1 663.661H0.5V664.901L1.36029 664.007L1 663.661ZM106.476 665.841L106.141 666.213L106.141 666.213L106.476 665.841ZM226.89 665.841L227.225 666.213L227.238 666.201L227.251 666.188L226.89 665.841ZM339.353 665.841L339.688 665.47L339.688 665.47L339.353 665.841ZM459.767 665.841L460.102 666.213L460.115 666.201L460.127 666.188L459.767 665.841ZM572.229 665.841L572.564 665.47L572.564 665.47L572.229 665.841ZM681 670.203L681.335 670.574L681.5 670.425V670.203H681ZM1.36029 622.175C10.0202 613.175 24.2524 602.935 42.2792 600.334C60.281 597.735 82.1509 602.741 106.141 624.38L106.811 623.637C82.6356 601.832 60.4766 596.697 42.1364 599.344C23.8213 601.987 9.39823 612.379 0.639714 621.481L1.36029 622.175ZM106.141 624.38C130.342 646.208 155.581 650.771 177.292 647.583C198.98 644.398 217.131 633.485 227.225 624.38L226.556 623.637C216.581 632.634 198.607 643.442 177.147 646.593C155.71 649.741 130.776 645.253 106.811 623.637L106.141 624.38ZM227.251 624.355C235.899 615.368 251.878 604.571 271.67 601.423C291.435 598.279 315.045 602.757 339.018 624.38L339.688 623.637C315.495 601.817 291.583 597.243 271.513 600.435C251.469 603.623 235.3 614.548 226.53 623.662L227.251 624.355ZM339.018 624.38C363.219 646.208 388.457 650.771 410.169 647.583C431.857 644.398 450.007 633.485 460.102 624.38L459.432 623.637C449.458 632.634 431.484 643.442 410.024 646.593C388.587 649.741 363.653 645.253 339.688 623.637L339.018 624.38ZM460.127 624.355C468.775 615.368 484.755 604.571 504.547 601.423C524.311 598.279 547.921 602.757 571.895 624.38L572.564 623.637C548.372 601.817 524.46 597.243 504.39 600.435C484.346 603.623 468.177 614.548 459.407 623.662L460.127 624.355ZM571.895 624.38C596.067 646.183 618.38 651.861 637.206 649.766C656.01 647.673 671.255 637.833 681.335 628.741L680.665 627.999C670.676 637.008 655.619 646.71 637.096 648.772C618.595 650.831 596.557 645.278 572.564 623.637L571.895 624.38ZM1.36029 664.007C10.0202 655.008 24.2524 644.768 42.2792 642.166C60.281 639.568 82.1509 644.574 106.141 666.213L106.811 665.47C82.6356 643.665 60.4766 638.53 42.1364 641.177C23.8213 643.82 9.39823 654.212 0.639714 663.314L1.36029 664.007ZM106.141 666.213C130.342 688.041 155.581 692.603 177.292 689.415C198.98 686.231 217.131 675.317 227.225 666.213L226.556 665.47C216.581 674.467 198.607 685.275 177.147 688.426C155.71 691.574 130.776 687.085 106.811 665.47L106.141 666.213ZM227.251 666.188C235.899 657.201 251.878 646.403 271.67 643.256C291.435 640.112 315.045 644.589 339.018 666.213L339.688 665.47C315.495 643.649 291.583 639.076 271.513 642.268C251.469 645.456 235.3 656.38 226.53 665.495L227.251 666.188ZM339.018 666.213C363.219 688.041 388.457 692.603 410.169 689.415C431.857 686.231 450.007 675.317 460.102 666.213L459.432 665.47C449.458 674.467 431.484 685.275 410.024 688.426C388.587 691.574 363.653 687.085 339.688 665.47L339.018 666.213ZM460.127 666.188C468.775 657.201 484.755 646.403 504.547 643.256C524.311 640.112 547.921 644.589 571.895 666.213L572.564 665.47C548.372 643.649 524.46 639.076 504.39 642.268C484.346 645.456 468.177 656.38 459.407 665.495L460.127 666.188ZM571.895 666.213C596.067 688.015 618.38 693.694 637.206 691.598C656.01 689.505 671.255 679.666 681.335 670.574L680.665 669.831C670.676 678.841 655.619 688.543 637.096 690.605C618.595 692.664 596.557 687.111 572.564 665.47L571.895 666.213ZM0.5 621.828V663.661H1.5V621.828H0.5ZM681.5 670.203V628.37H680.5V670.203H681.5Z" fill="#67A0D5"/>
</svg>
