<svg width="260" height="260" viewBox="0 0 260 260" fill="none" xmlns="http://www.w3.org/2000/svg">
<path d="M0 260H260V198.367L242.648 204.582L195.427 186.972L149.344 201.733L105.536 186.972L71.9694 201.733L26.4551 186.972L0 192.669V260Z" fill="#7573D8"/>
<path d="M260 0H0V192.669L26.4551 186.972L71.9694 201.733L105.536 186.972L149.344 201.733L195.427 186.972L242.648 204.582L260 198.367V0Z" fill="#7573D8"/>
<path d="M157.427 153.646C138.73 127.187 163.659 106.903 214.407 39.875C215.595 38.9931 215.007 37.4328 221.53 46.0487C226.872 53.1042 226.575 46.6366 224.201 39.875C229.246 35.7593 240.227 26.293 236.666 24.8819C235.775 23.9999 231.502 24.1763 221.53 31.9374C218.859 32.8194 213.517 31.9374 211.736 32.8194C199.272 38.9934 167.22 92.7916 142.291 81.3264V73.3889C144.665 71.331 149.235 66.1569 148.523 61.9236C151.194 59.2778 155.112 53.8097 149.414 53.1042C143.715 52.3986 136.652 46.9305 135.168 44.2847C133.388 47.2245 128.046 53.1042 120.923 53.1042C114.513 50.9875 118.252 58.1018 120.923 61.9236C120.211 67.568 123.594 71.919 125.375 73.3889V81.3264C100.446 92.7916 69.0914 38.4734 56.6268 32.2994C54.8461 31.4175 49.5042 32.2994 46.8332 31.4175C36.8615 23.6563 32.588 23.48 31.6976 24.3619C28.1363 25.773 39.117 35.2393 44.1622 39.355C41.788 46.1166 41.4912 52.5842 46.8332 45.5287C53.3565 36.9128 52.7687 38.4731 53.9558 39.355C104.704 106.383 129.634 126.667 110.937 153.126C108.591 156.943 125.224 175.642 134.278 184.514C151.372 166.875 157.13 156.586 157.427 153.646Z" fill="#FFB681"/>
<path d="M110.937 153.126C105.951 160.181 104.704 174.292 104.704 180.466L105.788 210.972H127.155L130.717 201.271L134.278 184.514C125.224 175.642 108.591 156.943 110.937 153.126Z" fill="#FFB681"/>
<path d="M163.659 180.986C163.659 174.812 162.412 160.701 157.427 153.646C157.13 156.586 151.372 166.875 134.278 184.514L136.949 201.271L141.401 210.972H162.768L163.659 180.986Z" fill="#FFB681"/>
<path d="M163.659 180.986L164.159 181.001L164.159 180.993V180.986H163.659ZM214.407 39.875L214.109 39.4737L214.052 39.5163L214.009 39.5732L214.407 39.875ZM221.53 46.0487L221.131 46.3505L221.53 46.0487ZM224.201 39.875L223.885 39.4876L223.613 39.7095L223.729 40.0407L224.201 39.875ZM236.666 24.8819L236.314 25.2371L236.386 25.3091L236.481 25.3467L236.666 24.8819ZM221.53 31.9374L221.687 32.4122L221.769 32.3851L221.837 32.332L221.53 31.9374ZM211.736 32.8194L211.958 33.2675L211.736 32.8194ZM142.291 81.3264H141.791V81.6467L142.082 81.7806L142.291 81.3264ZM104.704 180.466H104.204V180.475L104.205 180.484L104.704 180.466ZM53.9558 39.355L54.3544 39.0532L54.3113 38.9963L54.254 38.9537L53.9558 39.355ZM46.8332 45.5287L47.2318 45.8305L46.8332 45.5287ZM44.1622 39.355L44.634 39.5207L44.7503 39.1895L44.4783 38.9676L44.1622 39.355ZM31.6976 24.3619L31.8818 24.8267L31.9769 24.7891L32.0495 24.7171L31.6976 24.3619ZM46.8332 31.4175L46.5261 31.812L46.5943 31.8651L46.6764 31.8922L46.8332 31.4175ZM56.6268 32.2994L56.4049 32.7475L56.6268 32.2994ZM125.375 81.3264L125.584 81.7806L125.875 81.6467V81.3264H125.375ZM142.291 73.3889L141.963 73.011L141.791 73.1606V73.3889H142.291ZM125.375 73.3889H125.875V73.1533L125.693 73.0033L125.375 73.3889ZM148.523 61.9236L148.171 61.5684L147.987 61.7509L148.03 62.0065L148.523 61.9236ZM135.168 44.2847L135.604 44.0401L135.185 43.2922L134.741 44.0257L135.168 44.2847ZM120.923 53.1042L120.766 53.5789L120.843 53.6042H120.923V53.1042ZM120.923 61.9236L121.419 61.9862L121.443 61.7951L121.333 61.6372L120.923 61.9236ZM127.155 210.972V211.472H127.504L127.625 211.144L127.155 210.972ZM105.788 210.972L105.288 210.99L105.305 211.472H105.788V210.972ZM141.401 210.972L140.946 211.181L141.08 211.472H141.401V210.972ZM162.768 210.972V211.472H163.254L163.268 210.987L162.768 210.972ZM136.949 201.271L136.455 201.349L136.466 201.417L136.495 201.479L136.949 201.271ZM130.717 201.271L131.186 201.443L131.198 201.41L131.206 201.375L130.717 201.271ZM164.159 180.986C164.159 177.873 163.845 172.772 162.904 167.558C161.966 162.359 160.393 156.977 157.835 153.357L157.018 153.934C159.446 157.37 160.989 162.572 161.92 167.735C162.849 172.884 163.159 177.926 163.159 180.986H164.159ZM157.835 153.357C153.213 146.817 151.314 140.701 151.804 134.17C152.296 127.617 155.198 120.587 160.302 112.235C165.404 103.884 172.676 94.2591 181.859 82.5163C191.037 70.7807 202.116 56.9379 214.806 40.1768L214.009 39.5732C201.325 56.326 190.257 70.1543 181.071 81.9003C171.891 93.6393 164.585 103.307 159.448 111.713C154.313 120.118 151.316 127.309 150.807 134.095C150.296 140.904 152.291 147.245 157.018 153.934L157.835 153.357ZM214.706 40.2764C214.888 40.1412 215.033 39.995 215.14 39.8873C215.261 39.7667 215.321 39.7106 215.372 39.6781C215.401 39.6593 215.4 39.6652 215.402 39.6653C215.425 39.6681 215.508 39.6877 215.679 39.8086C216.028 40.0551 216.567 40.5931 217.449 41.6462C218.321 42.6879 219.501 44.1977 221.131 46.3505L221.929 45.7468C220.297 43.5917 219.104 42.0656 218.215 41.0041C217.336 39.9542 216.724 39.3219 216.256 38.9917C216.019 38.8243 215.777 38.7039 215.524 38.6728C215.249 38.639 215.02 38.7169 214.836 38.8338C214.673 38.937 214.533 39.0802 214.433 39.1801C214.32 39.2929 214.224 39.3884 214.109 39.4737L214.706 40.2764ZM221.131 46.3505C221.808 47.2443 222.405 47.9361 222.927 48.4447C223.444 48.9473 223.915 49.2985 224.346 49.4743C224.79 49.6555 225.262 49.6728 225.651 49.3768C226.002 49.1105 226.169 48.672 226.251 48.2356C226.417 47.3478 226.308 46.0478 226.028 44.59C225.744 43.1145 225.273 41.4184 224.673 39.7094L223.729 40.0407C224.316 41.7124 224.773 43.3604 225.046 44.7788C225.322 46.2149 225.398 47.3586 225.268 48.051C225.201 48.4046 225.099 48.5403 225.046 48.5806C225.032 48.5912 224.966 48.6475 224.724 48.5485C224.468 48.4441 224.105 48.196 223.625 47.7281C223.15 47.2664 222.587 46.6169 221.929 45.7468L221.131 46.3505ZM224.517 40.2625C227.042 38.2023 231.069 34.7909 234.022 31.7102C235.491 30.1772 236.73 28.6907 237.372 27.4746C237.689 26.8742 237.9 26.2694 237.858 25.7244C237.836 25.44 237.745 25.1676 237.564 24.9323C237.384 24.699 237.138 24.5311 236.85 24.4171L236.481 25.3467C236.639 25.4091 236.724 25.4805 236.772 25.5429C236.819 25.6033 236.852 25.683 236.861 25.8006C236.881 26.0594 236.778 26.4578 236.488 27.0076C235.915 28.0919 234.761 29.4938 233.3 31.0182C230.391 34.0524 226.405 37.432 223.885 39.4876L224.517 40.2625ZM237.018 24.5267C236.655 24.1672 236.056 24.006 235.317 24.021C234.561 24.0362 233.575 24.2358 232.329 24.7C229.836 25.6287 226.229 27.6462 221.223 31.5429L221.837 32.332C226.802 28.4676 230.318 26.5163 232.678 25.6371C233.858 25.1972 234.73 25.033 235.337 25.0207C235.962 25.0081 236.231 25.1556 236.314 25.2371L237.018 24.5267ZM221.373 31.4627C220.767 31.6628 219.983 31.77 219.093 31.8242C218.207 31.8783 217.249 31.8784 216.299 31.8784C215.358 31.8784 214.421 31.8782 213.608 31.9348C212.809 31.9903 212.055 32.1037 211.515 32.3714L211.958 33.2675C212.308 33.0941 212.889 32.9871 213.677 32.9324C214.449 32.8787 215.349 32.8784 216.299 32.8784C217.242 32.8784 218.232 32.8786 219.154 32.8224C220.072 32.7664 220.958 32.6531 221.687 32.4122L221.373 31.4627ZM211.515 32.3714C209.883 33.1794 207.973 34.7416 205.849 36.7864C203.718 38.8393 201.335 41.414 198.761 44.2815C193.603 50.0257 187.665 56.9532 181.333 63.3355C175 69.7193 168.31 75.5182 161.673 79.0098C155.041 82.4993 148.536 83.6481 142.5 80.8721L142.082 81.7806C148.511 84.7372 155.361 83.4608 162.139 79.8948C168.913 76.3308 175.689 70.4441 182.043 64.0398C188.398 57.6339 194.368 50.6707 199.505 44.9496C202.077 42.0846 204.439 39.5329 206.543 37.5067C208.656 35.4725 210.473 34.003 211.958 33.2675L211.515 32.3714ZM105.204 180.466C105.204 177.406 105.514 172.364 106.443 167.215C107.375 162.052 108.917 156.85 111.345 153.414L110.528 152.837C107.97 156.457 106.397 161.839 105.459 167.038C104.518 172.252 104.204 177.353 104.204 180.466H105.204ZM111.345 153.414C116.072 146.725 118.068 140.384 117.556 133.575C117.047 126.789 114.05 119.598 108.915 111.193C103.779 102.787 96.4718 93.1193 87.2918 81.3803C78.1062 69.6343 67.0385 55.806 54.3544 39.0532L53.5572 39.6568C66.2475 56.4179 77.3266 70.2607 86.5041 81.9963C95.687 93.7391 102.959 103.364 108.062 111.715C113.165 120.067 116.067 127.097 116.559 133.65C117.05 140.181 115.15 146.297 110.528 152.837L111.345 153.414ZM54.254 38.9537C54.1392 38.8684 54.0428 38.7729 53.93 38.6601C53.8301 38.5602 53.69 38.417 53.5274 38.3138C53.3432 38.1969 53.1146 38.119 52.8396 38.1528C52.5859 38.1839 52.3444 38.3043 52.1072 38.4717C51.6395 38.8019 51.0273 39.4342 50.1479 40.4841C49.2588 41.5456 48.0663 43.0717 46.4346 45.2269L47.2318 45.8305C48.8618 43.6777 50.042 42.1679 50.9145 41.1263C51.7966 40.0731 52.3348 39.5351 52.684 39.2886C52.8552 39.1677 52.9387 39.1481 52.9614 39.1453C52.9628 39.1452 52.9619 39.1393 52.9915 39.1581C53.0427 39.1906 53.1023 39.2467 53.223 39.3673C53.3307 39.475 53.4756 39.6212 53.6576 39.7564L54.254 38.9537ZM46.4346 45.2269C45.7758 46.0969 45.213 46.7464 44.7386 47.2081C44.2579 47.676 43.8951 47.9241 43.6393 48.0285C43.3969 48.1275 43.331 48.0712 43.3171 48.0606C43.264 48.0203 43.162 47.8846 43.0956 47.531C42.9655 46.8386 43.0416 45.6949 43.3177 44.2588C43.5905 42.8404 44.047 41.1924 44.634 39.5207L43.6905 39.1894C43.0904 40.8984 42.6194 42.5945 42.3357 44.07C42.0554 45.5278 41.946 46.8278 42.1127 47.7156C42.1947 48.152 42.3616 48.5905 42.712 48.8568C43.1015 49.1528 43.5735 49.1355 44.0173 48.9543C44.4479 48.7786 44.9197 48.4273 45.4361 47.9247C45.9587 47.4161 46.5551 46.7243 47.2318 45.8305L46.4346 45.2269ZM44.4783 38.9676C41.9584 36.912 37.9718 33.5324 35.0634 30.4982C33.6022 28.9738 32.4481 27.5719 31.8754 26.4876C31.5851 25.9378 31.4826 25.5394 31.5023 25.2806C31.5113 25.163 31.5447 25.0833 31.5913 25.0229C31.6394 24.9605 31.7245 24.8891 31.8818 24.8267L31.5134 23.8971C31.2256 24.0111 30.9792 24.179 30.7993 24.4123C30.6179 24.6476 30.527 24.92 30.5053 25.2044C30.4636 25.7494 30.6741 26.3542 30.9912 26.9546C31.6335 28.1707 32.8721 29.6572 34.3415 31.1902C37.2945 34.2709 41.3208 37.6823 43.8462 39.7425L44.4783 38.9676ZM32.0495 24.7171C32.1318 24.6356 32.4011 24.4881 33.0258 24.5008C33.6333 24.513 34.5049 24.6772 35.6853 25.1171C38.0452 25.9963 41.5609 27.9476 46.5261 31.812L47.1403 31.0229C42.1338 27.1262 38.5269 25.1087 36.0345 24.18C34.7888 23.7158 33.8018 23.5162 33.046 23.501C32.3074 23.486 31.7086 23.6472 31.3458 24.0067L32.0495 24.7171ZM46.6764 31.8922C47.4058 32.1331 48.2915 32.2464 49.2094 32.3024C50.1316 32.3586 51.1212 32.3584 52.0639 32.3584C53.0147 32.3584 53.9141 32.3587 54.6863 32.4124C55.4738 32.4671 56.0549 32.5741 56.4049 32.7475L56.8487 31.8514C56.3084 31.5838 55.554 31.4703 54.7556 31.4148C53.9419 31.3582 53.005 31.3584 52.0639 31.3584C51.1146 31.3584 50.1566 31.3583 49.2703 31.3043C48.3798 31.25 47.5961 31.1428 46.99 30.9427L46.6764 31.8922ZM56.4049 32.7475C57.8879 33.4821 59.6941 34.9582 61.7873 37.0063C63.872 39.0461 66.2063 41.6177 68.7459 44.5069C73.8169 50.276 79.6998 57.3048 85.9674 63.7755C92.2337 70.2448 98.9226 76.1975 105.632 79.8112C112.345 83.4274 119.153 84.7381 125.584 81.7806L125.166 80.8721C119.132 83.6473 112.672 82.4676 106.106 78.9308C99.535 75.3916 92.9322 69.5286 86.6857 63.0797C80.4405 56.6323 74.5897 49.6405 69.497 43.8467C66.9549 40.9546 64.5999 38.3592 62.4867 36.2915C60.3821 34.2322 58.4818 32.6603 56.8487 31.8514L56.4049 32.7475ZM142.791 81.3264V73.3889H141.791V81.3264H142.791ZM125.875 81.3264V73.3889H124.875V81.3264H125.875ZM142.618 73.7667C143.834 72.7131 145.603 70.8706 146.984 68.7443C148.352 66.6367 149.405 64.1486 149.016 61.8406L148.03 62.0065C148.354 63.9319 147.477 66.1475 146.145 68.1998C144.825 70.2333 143.122 72.0068 141.963 73.011L142.618 73.7667ZM148.875 62.2788C150.225 60.9417 151.941 58.8457 152.581 56.9457C152.901 55.9941 152.985 54.987 152.483 54.1503C151.976 53.3072 150.969 52.7929 149.475 52.6079L149.352 53.6004C150.707 53.7682 151.347 54.202 151.625 54.6652C151.907 55.1349 151.914 55.7925 151.633 56.6268C151.07 58.2987 149.493 60.2596 148.171 61.5684L148.875 62.2788ZM149.475 52.6079C146.738 52.269 143.624 50.7735 140.989 49.0067C139.677 48.1273 138.499 47.1901 137.56 46.3142C136.614 45.4312 135.938 44.6348 135.604 44.0401L134.732 44.5293C135.141 45.2575 135.904 46.1369 136.878 47.0453C137.859 47.9608 139.08 48.9308 140.432 49.8373C143.124 51.6425 146.391 53.2337 149.352 53.6004L149.475 52.6079ZM134.741 44.0257C133.881 45.4446 132.143 47.6004 129.749 49.3969C127.357 51.1921 124.344 52.6042 120.923 52.6042V53.6042C124.625 53.6042 127.844 52.0764 130.349 50.1968C132.852 48.3185 134.675 46.0647 135.596 44.5438L134.741 44.0257ZM125.693 73.0033C123.993 71.5996 120.736 67.4032 121.419 61.9862L120.427 61.861C119.686 67.7329 123.196 72.2383 125.056 73.7745L125.693 73.0033ZM121.333 61.6372C120.001 59.7318 118.448 57.0647 118.004 55.1727C117.895 54.7056 117.861 54.318 117.898 54.018C117.934 53.7243 118.033 53.5456 118.165 53.4341C118.301 53.3196 118.541 53.2182 118.972 53.2186C119.406 53.2191 119.992 53.3234 120.766 53.5789L121.08 52.6294C120.251 52.3558 119.553 52.2193 118.974 52.2186C118.393 52.218 117.894 52.355 117.521 52.6694C117.144 52.987 116.963 53.4279 116.906 53.8956C116.849 54.357 116.907 54.8724 117.031 55.4012C117.522 57.4927 119.174 60.2936 120.513 62.21L121.333 61.6372ZM134.628 184.157C130.112 179.732 123.705 172.854 118.723 166.612C116.231 163.489 114.108 160.541 112.757 158.147C112.08 156.948 111.609 155.91 111.377 155.073C111.138 154.212 111.183 153.68 111.363 153.388L110.511 152.864C110.104 153.526 110.156 154.414 110.413 155.34C110.677 156.291 111.192 157.409 111.886 158.639C113.276 161.102 115.438 164.099 117.942 167.236C122.953 173.516 129.389 180.423 133.928 184.871L134.628 184.157ZM156.929 153.596C156.865 154.232 156.487 155.357 155.643 157C154.808 158.628 153.54 160.721 151.742 163.28C148.148 168.398 142.453 175.36 133.919 184.166L134.637 184.862C143.197 176.029 148.928 169.026 152.56 163.855C154.376 161.27 155.671 159.137 156.533 157.457C157.387 155.793 157.84 154.529 157.924 153.696L156.929 153.596ZM104.205 180.484L105.288 210.99L106.287 210.954L105.204 180.448L104.205 180.484ZM105.788 211.472H127.155V210.472H105.788V211.472ZM163.159 180.971L162.269 210.957L163.268 210.987L164.159 181.001L163.159 180.971ZM162.768 210.472H141.401V211.472H162.768V210.472ZM141.855 210.764L137.403 201.062L136.495 201.479L140.946 211.181L141.855 210.764ZM137.443 201.192L134.772 184.435L133.784 184.593L136.455 201.349L137.443 201.192ZM127.625 211.144L131.186 201.443L130.247 201.098L126.686 210.8L127.625 211.144ZM131.206 201.375L134.767 184.618L133.789 184.41L130.228 201.167L131.206 201.375Z" fill="#D27D1A"/>
<path d="M120.564 53.5219C120.564 47.4439 122.184 34.9405 128.666 33.5512C128.734 32.8258 128.874 31.9351 129.101 30.992C129.869 27.7963 131.631 24 134.967 24C138.304 24 140.066 27.7963 140.834 30.992C141.06 31.9351 141.2 32.8258 141.269 33.5512C147.75 34.9405 149.371 47.4439 149.371 53.5219C146.07 53.2325 138.568 52.6993 134.967 45.753C132.087 53.5219 123.865 53.5219 120.564 53.5219Z" fill="#9F4C37"/>
<path d="M120.564 53.5219H120.064V54.0219H120.564V53.5219ZM149.371 53.5219L149.327 54.02L149.871 54.0677V53.5219H149.371ZM134.967 45.753L135.411 45.5229L134.891 44.5199L134.498 45.5792L134.967 45.753ZM140.834 30.992L141.32 30.8752L140.834 30.992ZM129.101 30.992L128.615 30.8752L129.101 30.992ZM121.064 53.5219C121.064 50.5152 121.466 45.921 122.663 41.9217C123.262 39.9218 124.052 38.0972 125.07 36.697C126.086 35.2998 127.307 34.3539 128.771 34.0401L128.561 33.0623C126.784 33.4431 125.372 34.5811 124.261 36.109C123.152 37.6339 122.322 39.5754 121.705 41.6349C120.472 45.7541 120.064 50.4506 120.064 53.5219H121.064ZM149.871 53.5219C149.871 50.4506 149.463 45.7541 148.229 41.6349C147.613 39.5754 146.782 37.6339 145.674 36.109C144.563 34.5811 143.15 33.4431 141.374 33.0623L141.164 34.0401C142.628 34.3539 143.849 35.2998 144.865 36.697C145.883 38.0972 146.673 39.9218 147.271 41.9217C148.469 45.921 148.871 50.5152 148.871 53.5219H149.871ZM120.564 54.0219C122.211 54.0219 125.169 54.025 128.085 53.0237C131.022 52.0154 133.932 49.9821 135.436 45.9268L134.498 45.5792C133.121 49.2928 130.481 51.1439 127.761 52.0779C125.02 53.0188 122.217 53.0219 120.564 53.0219V54.0219ZM149.414 53.0238C146.077 52.7312 138.871 52.1965 135.411 45.5229L134.523 45.9831C138.266 53.2021 146.063 53.7338 149.327 54.02L149.414 53.0238ZM140.912 33.2014C140.053 34.078 138.41 35.1525 136.316 35.4651C134.244 35.7744 131.695 35.3433 128.979 33.1614L128.353 33.941C131.28 36.2925 134.108 36.8059 136.464 36.4541C138.799 36.1055 140.635 34.9133 141.626 33.901L140.912 33.2014ZM141.767 33.5043C141.696 32.7551 141.552 31.8411 141.32 30.8752L140.348 31.1089C140.569 32.0291 140.705 32.8964 140.771 33.5981L141.767 33.5043ZM141.32 30.8752C140.929 29.2462 140.277 27.4299 139.272 26.009C138.264 24.5828 136.855 23.5 134.967 23.5V24.5C136.416 24.5 137.557 25.3154 138.456 26.5863C139.358 27.8624 139.971 29.5422 140.348 31.1089L141.32 30.8752ZM129.164 33.5981C129.23 32.8964 129.366 32.0291 129.587 31.1089L128.615 30.8752C128.383 31.8411 128.239 32.7551 128.168 33.5043L129.164 33.5981ZM129.587 31.1089C129.963 29.5422 130.577 27.8624 131.479 26.5863C132.378 25.3154 133.519 24.5 134.967 24.5V23.5C133.079 23.5 131.671 24.5828 130.663 26.009C129.658 27.4299 129.006 29.2462 128.615 30.8752L129.587 31.1089ZM140.506 30.6147C139.061 31.87 134.724 33.755 129.356 30.5623L128.845 31.4218C134.623 34.8586 139.428 32.8764 141.162 31.3694L140.506 30.6147Z" fill="#7E3421"/>
<path d="M134.972 184.558C143.208 175.469 159.869 155.852 157.751 153.741C155.104 151.102 145.562 134.971 158.799 113.861C155.857 106.531 149.895 88.4142 149.895 82.7849L147.014 82.5259L142.824 81.2311C139.157 108.94 125.278 99.8765 124.754 81.49L118.731 82.7849C118.731 88.4142 113.03 107.049 110.089 114.378C123.326 135.489 112.998 150.843 110.35 153.482C108.232 155.593 125.54 176.53 134.09 184.558H134.972Z" fill="#F45858"/>
<path d="M134.972 184.558V185.058H135.194L135.343 184.893L134.972 184.558ZM157.751 153.741L158.104 153.387L157.751 153.741ZM158.799 113.861L159.222 114.126L159.357 113.911L159.263 113.674L158.799 113.861ZM149.895 82.7849H150.395V82.3278L149.939 82.2869L149.895 82.7849ZM142.824 81.2311L142.971 80.7534L142.406 80.5786L142.328 81.1655L142.824 81.2311ZM134.09 184.558L133.747 184.922L133.892 185.058H134.09V184.558ZM110.35 153.482L109.997 153.128H109.997L110.35 153.482ZM110.089 114.378L109.624 114.192L109.53 114.428L109.665 114.644L110.089 114.378ZM118.731 82.7849L118.626 82.296L118.231 82.3809V82.7849H118.731ZM124.754 81.49L125.254 81.4758L125.237 80.8749L124.649 81.0012L124.754 81.49ZM147.014 82.5259L146.866 83.0036L146.917 83.0192L146.969 83.0239L147.014 82.5259ZM135.343 184.893C139.466 180.343 145.699 173.157 150.638 166.841C153.106 163.684 155.262 160.732 156.67 158.429C157.372 157.281 157.903 156.271 158.189 155.466C158.332 155.065 158.425 154.686 158.435 154.35C158.444 154.015 158.372 153.654 158.104 153.387L157.398 154.095C157.398 154.096 157.408 154.104 157.417 154.135C157.428 154.17 157.438 154.229 157.435 154.32C157.429 154.508 157.373 154.776 157.247 155.131C156.996 155.838 156.508 156.778 155.817 157.908C154.44 160.161 152.312 163.077 149.851 166.225C144.93 172.516 138.715 179.683 134.602 184.222L135.343 184.893ZM158.104 153.387C156.867 152.154 153.861 147.564 152.813 140.653C151.768 133.767 152.668 124.578 159.222 114.126L158.375 113.595C151.692 124.253 150.744 133.685 151.824 140.802C152.899 147.894 155.988 152.69 157.398 154.095L158.104 153.387ZM159.263 113.674C157.799 110.026 155.577 103.679 153.722 97.5404C152.795 94.4718 151.961 91.4617 151.359 88.8714C150.755 86.2683 150.395 84.1297 150.395 82.7849H149.395C149.395 84.2547 149.78 86.4916 150.385 89.0977C150.993 91.7166 151.834 94.7492 152.765 97.8297C154.626 103.989 156.857 110.365 158.335 114.047L159.263 113.674ZM134.432 184.193C130.181 180.202 123.733 172.981 118.612 166.491C116.051 163.246 113.833 160.199 112.39 157.838C111.667 156.655 111.152 155.666 110.882 154.923C110.746 154.55 110.683 154.267 110.673 154.068C110.664 153.863 110.713 153.826 110.703 153.836L109.997 153.128C109.723 153.402 109.659 153.776 109.675 154.114C109.69 154.457 109.79 154.848 109.942 155.265C110.246 156.102 110.802 157.158 111.537 158.36C113.011 160.77 115.257 163.854 117.827 167.111C122.967 173.624 129.448 180.886 133.747 184.922L134.432 184.193ZM110.703 153.836C113.472 151.076 123.903 135.468 110.512 114.113L109.665 114.644C122.748 135.509 112.523 150.61 109.997 153.128L110.703 153.836ZM110.553 114.565C112.032 110.878 114.198 104.369 115.993 98.0813C116.892 94.9359 117.699 91.839 118.282 89.1723C118.863 86.5181 119.231 84.2513 119.231 82.7849H118.231C118.231 84.1331 117.886 86.3066 117.305 88.9586C116.728 91.5982 115.927 94.6735 115.032 97.8067C113.242 104.076 111.087 110.549 109.624 114.192L110.553 114.565ZM118.836 83.2737L124.859 81.9789L124.649 81.0012L118.626 82.296L118.836 83.2737ZM124.254 81.5043C124.387 86.1587 125.365 90.2431 126.831 93.3182C128.288 96.371 130.273 98.521 132.478 99.1284C134.759 99.7572 137.05 98.687 138.944 95.8227C140.83 92.9709 142.399 88.2545 143.319 81.2967L142.328 81.1655C141.416 88.0622 139.874 92.6038 138.11 95.2711C136.354 97.9261 134.455 98.6362 132.743 98.1644C130.954 97.6713 129.142 95.8397 127.734 92.8877C126.337 89.9581 125.383 86.0146 125.254 81.4758L124.254 81.5043ZM134.972 184.058H134.09V185.058H134.972V184.058ZM149.939 82.2869L147.059 82.0279L146.969 83.0239L149.85 83.2829L149.939 82.2869ZM147.162 82.0482L142.971 80.7534L142.676 81.7088L146.866 83.0036L147.162 82.0482Z" fill="#B01313"/>
<path d="M130.599 123.724C137.439 118.554 145.369 115.959 152.275 114.919C132.762 121.022 120.337 138.286 114.149 156.916C115.279 140.517 122.124 130.129 130.599 123.724Z" fill="#FFDFDF" stroke="#FFDFDF"/>
<path d="M144.87 109.48C134.435 111.59 124.34 117.119 117.652 128.329C120.25 119.776 127.076 114.748 134.591 111.971C138.005 110.71 141.546 109.921 144.87 109.48Z" fill="#FFDFDF" stroke="#FFDFDF"/>
<path d="M0 260H260V198.367L242.648 204.582L195.427 186.972L149.344 201.733L105.536 186.972L71.9694 201.733L26.4551 186.972L0 192.669V260Z" fill="#67A0D5"/>
<path d="M0.5 186C7.15998 179.277 21.9128 170.725 40.3291 186.861C58.7454 202.998 78.6964 193.585 86.3698 186.861C93.0298 180.138 110.954 170.725 129.37 186.861C147.786 202.998 167.737 193.585 175.411 186.861C182.071 180.138 199.995 170.725 218.411 186.861C236.828 202.998 251.827 196.223 259.5 189.5V203C251.827 209.723 236.828 217.577 218.411 201.441C199.995 185.305 182.071 194.717 175.411 201.441C167.737 208.164 147.786 217.577 129.37 201.441C110.954 185.305 93.0298 194.717 86.3699 201.441C78.6964 208.164 58.7454 217.577 40.3291 201.441C21.9128 185.305 7.15998 193.777 0.5 200.5V186Z" fill="#84CFF9"/>
<path d="M0.5 186L0.144774 185.648L0 185.794V186H0.5ZM40.3291 186.861L40.6586 186.485L40.6586 186.485L40.3291 186.861ZM86.3698 186.861L86.6993 187.237L86.7126 187.226L86.725 187.213L86.3698 186.861ZM129.37 186.861L129.041 187.238L129.041 187.238L129.37 186.861ZM175.411 186.861L175.74 187.238L175.754 187.226L175.766 187.213L175.411 186.861ZM218.411 186.861L218.741 186.485L218.741 186.485L218.411 186.861ZM259.5 189.5H260V188.397L259.17 189.124L259.5 189.5ZM0.5 200.5H0V201.715L0.855226 200.852L0.5 200.5ZM40.3291 201.441L40.6586 201.065L40.6586 201.065L40.3291 201.441ZM86.3699 201.441L86.6994 201.817L86.7126 201.805L86.7251 201.793L86.3699 201.441ZM129.37 201.441L129.7 201.065L129.7 201.065L129.37 201.441ZM175.411 201.441L175.74 201.817L175.754 201.805L175.766 201.793L175.411 201.441ZM259.5 203L259.83 203.376L260 203.227V203H259.5ZM0.855226 186.352C4.13804 183.038 9.3967 179.294 16.0757 178.353C22.7314 177.416 30.8821 179.249 39.9996 187.237L40.6586 186.485C31.3597 178.338 22.9259 176.378 15.9362 177.363C8.96967 178.345 3.52194 182.239 0.144774 185.648L0.855226 186.352ZM39.9996 187.237C49.3261 195.409 59.0672 197.124 67.4486 195.929C75.8084 194.736 82.8018 190.652 86.6993 187.237L86.0403 186.485C82.2644 189.794 75.4455 193.778 67.3074 194.939C59.1909 196.097 49.7484 194.45 40.6586 186.485L39.9996 187.237ZM86.725 187.213C89.9927 183.915 96.0449 179.941 103.538 178.783C111.006 177.629 119.943 179.266 129.041 187.238L129.7 186.485C120.381 178.321 111.148 176.596 103.385 177.795C95.6468 178.99 89.4069 183.085 86.0146 186.51L86.725 187.213ZM129.041 187.238C138.367 195.409 148.108 197.124 156.49 195.929C164.85 194.736 171.843 190.652 175.74 187.238L175.081 186.485C171.305 189.794 164.487 193.778 156.348 194.939C148.232 196.097 138.789 194.45 129.7 186.485L129.041 187.238ZM175.766 187.213C179.034 183.915 185.086 179.941 192.579 178.783C200.047 177.629 208.984 179.266 218.082 187.238L218.741 186.485C209.422 178.321 200.189 176.596 192.426 177.795C184.688 178.99 178.448 183.085 175.056 186.51L175.766 187.213ZM218.082 187.238C227.372 195.378 235.854 197.78 243.021 197.252C250.173 196.724 255.94 193.284 259.83 189.876L259.17 189.124C255.387 192.439 249.818 195.748 242.947 196.254C236.093 196.76 227.867 194.481 218.741 186.485L218.082 187.238ZM0.855226 200.852C4.13729 197.539 9.39544 193.815 16.0743 192.893C22.7303 191.975 30.8817 193.828 39.9996 201.817L40.6586 201.065C31.3602 192.918 22.927 190.938 15.9376 191.903C8.97094 192.864 3.5227 196.738 0.144774 200.148L0.855226 200.852ZM39.9996 201.817C49.3261 209.989 59.0672 211.704 67.4486 210.508C75.8085 209.316 82.8019 205.232 86.6994 201.817L86.0403 201.065C82.2644 204.373 75.4455 208.357 67.3074 209.518C59.1909 210.676 49.7484 209.029 40.6586 201.065L39.9996 201.817ZM86.7251 201.793C89.9927 198.494 96.0449 194.52 103.538 193.363C111.006 192.209 119.943 193.845 129.041 201.817L129.7 201.065C120.381 192.9 111.148 191.175 103.385 192.374C95.6468 193.57 89.4069 197.664 86.0146 201.089L86.7251 201.793ZM129.041 201.817C138.367 209.989 148.108 211.704 156.49 210.508C164.85 209.316 171.843 205.232 175.74 201.817L175.081 201.065C171.305 204.373 164.487 208.358 156.349 209.518C148.232 210.676 138.789 209.029 129.7 201.065L129.041 201.817ZM175.766 201.793C179.034 198.494 185.086 194.52 192.579 193.363C200.047 192.209 208.984 193.845 218.082 201.817L218.741 201.065C209.422 192.9 200.189 191.175 192.426 192.374C184.688 193.57 178.448 197.664 175.056 201.089L175.766 201.793ZM218.082 201.817C227.379 209.963 235.868 212.095 243.04 211.29C250.19 210.487 255.951 206.775 259.83 203.376L259.17 202.624C255.376 205.949 249.8 209.525 242.928 210.296C236.078 211.065 227.86 209.055 218.741 201.065L218.082 201.817ZM259 189.5V203H260V189.5H259ZM0 186V200.5H1V186H0Z" fill="#67A0D5"/>
<path d="M0.5 230.5C7.15999 223.777 21.9128 215.267 40.3291 231.403C58.7454 247.539 78.6964 238.127 86.3699 231.403C93.0299 224.68 110.954 215.267 129.37 231.403C147.786 247.539 167.737 238.127 175.411 231.403C182.071 224.68 199.995 215.267 218.411 231.403C236.828 247.539 251.827 239.723 259.5 233V248.5C251.827 255.223 236.828 263.077 218.411 246.941C199.995 230.805 182.071 240.218 175.411 246.941C167.737 253.664 147.786 263.077 129.37 246.941C110.954 230.805 93.0298 240.218 86.3699 246.941C78.6964 253.664 58.7454 263.077 40.3291 246.941C21.9128 230.805 7.15999 239.277 0.5 246V230.5Z" fill="#84CFF9"/>
<path d="M0.5 230.5L0.144774 230.148L0 230.294V230.5H0.5ZM40.3291 231.403L39.9996 231.779L39.9996 231.779L40.3291 231.403ZM86.3699 231.403L86.6994 231.779L86.7127 231.768L86.7251 231.755L86.3699 231.403ZM129.37 231.403L129.7 231.027L129.7 231.027L129.37 231.403ZM175.411 231.403L175.74 231.779L175.754 231.768L175.766 231.755L175.411 231.403ZM259.5 233H260V231.897L259.17 232.624L259.5 233ZM0.5 246H0V247.215L0.855226 246.352L0.5 246ZM40.3291 246.941L39.9996 247.317L39.9996 247.317L40.3291 246.941ZM86.3699 246.941L86.6994 247.317L86.7127 247.305L86.7251 247.293L86.3699 246.941ZM129.37 246.941L129.7 246.565L129.7 246.565L129.37 246.941ZM175.411 246.941L175.74 247.317L175.754 247.305L175.766 247.293L175.411 246.941ZM259.5 248.5L259.83 248.876L260 248.727V248.5H259.5ZM0.855226 230.852C4.13765 227.538 9.39604 223.805 16.0749 222.874C22.7309 221.947 30.8819 223.79 39.9996 231.779L40.6586 231.027C31.36 222.88 22.9265 220.91 15.9369 221.884C8.97034 222.855 3.52234 226.738 0.144774 230.148L0.855226 230.852ZM39.9996 231.779C49.3261 239.951 59.0672 241.666 67.4487 240.471C75.8085 239.278 82.8019 235.194 86.6994 231.779L86.0404 231.027C82.2644 234.336 75.4456 238.32 67.3074 239.481C59.1909 240.638 49.7484 238.992 40.6586 231.027L39.9996 231.779ZM86.7251 231.755C89.9928 228.456 96.0449 224.483 103.538 223.325C111.006 222.171 119.943 223.808 129.041 231.779L129.7 231.027C120.381 222.862 111.148 221.137 103.385 222.337C95.6468 223.532 89.407 227.627 86.0146 231.051L86.7251 231.755ZM129.041 231.779C138.367 239.951 148.108 241.666 156.49 240.471C164.85 239.278 171.843 235.194 175.74 231.779L175.081 231.027C171.305 234.336 164.487 238.32 156.349 239.481C148.232 240.638 138.789 238.992 129.7 231.027L129.041 231.779ZM175.766 231.755C179.034 228.456 185.086 224.483 192.579 223.325C200.047 222.171 208.984 223.808 218.082 231.779L218.741 231.027C209.423 222.862 200.189 221.137 192.426 222.337C184.688 223.532 178.448 227.627 175.056 231.051L175.766 231.755ZM218.082 231.779C227.378 239.925 235.868 242.066 243.039 241.271C250.19 240.478 255.95 236.775 259.83 233.376L259.17 232.624C255.376 235.949 249.801 239.515 242.929 240.277C236.079 241.037 227.86 239.018 218.741 231.027L218.082 231.779ZM0.855226 246.352C4.13729 243.039 9.39544 239.315 16.0743 238.393C22.7303 237.475 30.8817 239.328 39.9996 247.317L40.6586 246.565C31.3602 238.418 22.927 236.438 15.9376 237.403C8.97094 238.364 3.5227 242.238 0.144774 245.648L0.855226 246.352ZM39.9996 247.317C49.3261 255.489 59.0672 257.204 67.4487 256.008C75.8085 254.816 82.8019 250.732 86.6994 247.317L86.0404 246.565C82.2644 249.873 75.4456 253.858 67.3074 255.018C59.1909 256.176 49.7484 254.529 40.6586 246.565L39.9996 247.317ZM86.7251 247.293C89.9928 243.994 96.0449 240.02 103.538 238.863C111.006 237.709 119.943 239.345 129.041 247.317L129.7 246.565C120.381 238.4 111.148 236.675 103.385 237.875C95.6468 239.07 89.407 243.165 86.0146 246.589L86.7251 247.293ZM129.041 247.317C138.367 255.489 148.108 257.204 156.49 256.008C164.85 254.816 171.843 250.732 175.74 247.317L175.081 246.565C171.305 249.873 164.487 253.858 156.349 255.018C148.232 256.176 138.789 254.529 129.7 246.565L129.041 247.317ZM175.766 247.293C179.034 243.994 185.086 240.02 192.579 238.863C200.047 237.709 208.984 239.345 218.082 247.317L218.741 246.565C209.423 238.4 200.189 236.675 192.426 237.875C184.688 239.07 178.448 243.165 175.056 246.589L175.766 247.293ZM218.082 247.317C227.379 255.463 235.868 257.595 243.04 256.79C250.19 255.987 255.951 252.275 259.83 248.876L259.17 248.124C255.376 251.449 249.8 255.025 242.928 255.796C236.078 256.565 227.86 254.555 218.741 246.565L218.082 247.317ZM0 230.5V246H1V230.5H0ZM260 248.5V233H259V248.5H260Z" fill="#67A0D5"/>
</svg>
