<svg width="502" height="501" viewBox="0 0 502 501" fill="none" xmlns="http://www.w3.org/2000/svg">
<ellipse cx="250" cy="250.5" rx="250" ry="250.5" fill="#E5E5E5"/>
<path d="M6.5 303.5C80.7 270.159 304.332 244.171 487.5 331C378.5 605.5 31.5 509.317 6.5 303.5Z" fill="#F9DB70" stroke="#E5E5E5"/>
<path d="M246.523 276.024L259.475 1.03525C367.671 8.84731 435.114 64.4213 470.313 131.435C505.475 198.378 508.459 276.734 487.726 330.326C428.038 303.276 321.843 279.598 246.523 276.024Z" fill="#FDFFE0" stroke="#E5E5E5"/>
<g opacity="0.5">
<path d="M286.27 144.87C282.723 156.117 272.223 170.176 258.6 136.435H264.986C266.405 135.03 267.114 131.515 262.857 130.109C257.749 128.422 255.053 118.159 254.343 115.348C253.634 100.586 257.749 73.5944 279.885 66.8464C307.555 58.4114 326.712 115.348 290.527 134.327C286.27 136.559 279.034 139.387 284.142 142.762C287.548 144.449 286.98 144.167 286.27 144.87Z" fill="#FFB681"/>
<path d="M320.326 187.046C316.069 184.937 298.19 192.107 294.785 203.916C301.879 220.786 324.157 247.778 330.969 237.656L392.694 184.937C398.37 169.473 402.911 144.449 375.667 168.067C348.422 191.685 333.097 210.242 330.969 203.916L320.326 187.046Z" fill="#FFB681"/>
<path d="M207.517 172.284C201.131 170.879 187.084 168.91 181.975 172.284C176.867 175.658 147.92 210.242 135.149 229.221C130.892 239.765 117.269 249.043 122.378 218.677C128.763 180.719 180.595 132.959 196.874 149.088C209.645 161.74 210.355 168.77 207.517 172.284Z" fill="#FFB681"/>
<path d="M217.5 335L181.975 322.006C177.009 323.412 161 331.5 96.8362 292.484C75.5513 279.831 35.1101 284.048 88.3221 324.115C160.69 359.964 214.094 388.984 217.5 335Z" fill="#FFB681"/>
<path d="M313.941 427.444C314.65 449.937 345.442 440.94 343.74 410.574C341.611 372.616 318.198 307.245 294.785 298.81L277.757 326.223C303.298 354.902 313.231 404.951 313.941 427.444Z" fill="#FFB681"/>
<path d="M286.27 144.87C282.723 156.117 272.223 170.176 258.6 136.435H264.986C266.405 135.03 267.114 131.515 262.857 130.109C257.749 128.422 255.053 118.159 254.343 115.348C253.634 100.586 257.749 73.5944 279.885 66.8464C307.555 58.4114 326.712 115.348 290.527 134.327C286.27 136.559 279.034 139.387 284.142 142.762C287.548 144.449 286.98 144.167 286.27 144.87Z" stroke="#D27D1A"/>
<path d="M320.326 187.046C316.069 184.937 298.19 192.107 294.785 203.916C301.879 220.786 324.157 247.778 330.969 237.656L392.694 184.937C398.37 169.473 402.911 144.449 375.667 168.067C348.422 191.685 333.097 210.242 330.969 203.916L320.326 187.046Z" stroke="#D27D1A"/>
<path d="M207.517 172.284C201.131 170.879 187.084 168.91 181.975 172.284C176.867 175.658 147.92 210.242 135.149 229.221C130.892 239.765 117.269 249.043 122.378 218.677C128.763 180.719 180.595 132.959 196.874 149.088C209.645 161.74 210.355 168.77 207.517 172.284Z" stroke="#D27D1A"/>
<path d="M217.5 335L181.975 322.006C177.009 323.412 161 331.5 96.8362 292.484C75.5513 279.831 35.1101 284.048 88.3221 324.115C160.69 359.964 214.094 388.984 217.5 335Z" stroke="#D27D1A"/>
<path d="M313.941 427.444C314.65 449.937 345.442 440.94 343.74 410.574C341.611 372.616 318.198 307.245 294.785 298.81L277.757 326.223C303.298 354.902 313.231 404.951 313.941 427.444Z" stroke="#D27D1A"/>
</g>
<path d="M259.857 107.991L266.286 114.597L262 92.5791L268.429 96.9826L272.714 81.5702L277 85.9738L281.286 81.5702L285.571 92.5791L292 88.1755L296.286 94.7808L300.571 90.3773L302.714 99.1844L309.143 96.9826V114.597L313.429 107.991L317.833 96.9826L319.857 99.1843L322 88.1756C319.143 75.6989 302.714 52.947 283.429 55.1489C274.857 56.1275 261.571 61.3137 259.857 68.3594L255.571 74.9647L251.286 81.5702L257.714 79.3682L249.143 88.1753H253.429L247 99.1841L251.286 96.9823L247 107.991L251.286 105.789L253.429 119L255.571 112.395L257.847 116.253L259.857 107.991Z" fill="#7E3421"/>
<path d="M257.714 116.799L257.847 116.253M257.847 116.253L259.857 107.991L266.286 114.597L262 92.5791L268.429 96.9826L272.714 81.5702L277 85.9738L281.286 81.5702L285.571 92.5791L292 88.1755L296.286 94.7808L300.571 90.3773L302.714 99.1844L309.143 96.9826V114.597L313.429 107.991L317.833 96.9826L319.857 99.1843L322 88.1756C319.143 75.6989 302.714 52.947 283.429 55.1489C274.857 56.1275 261.571 61.3137 259.857 68.3594L255.571 74.9647L251.286 81.5702L257.714 79.3682L249.143 88.1753H253.429L247 99.1841L251.286 96.9823L247 107.991L251.286 105.789L253.429 119L255.571 112.395L257.847 116.253Z" stroke="#9F4C37"/>
<path d="M258.5 136.5C242.161 135.082 207.311 136.991 186 145.5C193.104 150.463 212.615 163.991 207.5 172.5L217.705 173.768C219.126 171.641 222.705 196.185 195 260C218 261.5 260.5 274.5 271 279C276.683 249.219 289.311 191.637 294.426 203.549C295.137 200.003 302.951 193.307 320 186.5C317 174 301.844 145.702 286.5 144C282.238 155.345 273.844 170.535 258.5 136.5Z" fill="#F45858" stroke="#AE2929"/>
<path d="M295.5 298L270.897 279.771C257.648 274.905 219.017 262.669 195.587 261C193.026 265.256 187.219 282.5 187.219 292.286C187.954 293.954 215.027 302.714 226.966 308.971C242.307 318.01 276.326 330.337 278 327C280.092 322.829 293.408 308.429 295.5 298Z" fill="#132CB0"/>
<path d="M182.5 321.5C188.776 326.367 204.612 333.331 218 335L226.966 308.971C215.027 302.714 187.954 293.954 187.219 292.286C182.329 303.533 182.5 310.637 182.5 321.5Z" fill="#132CB0"/>
<path d="M226.966 308.971L218 335C204.612 333.331 188.776 326.367 182.5 321.5C182.5 310.637 182.329 303.533 187.219 292.286M226.966 308.971C242.307 318.01 276.326 330.337 278 327C280.092 322.829 293.408 308.429 295.5 298L270.897 279.771C257.648 274.905 219.017 262.669 195.587 261C193.026 265.256 187.219 282.5 187.219 292.286M226.966 308.971C215.027 302.714 187.954 293.954 187.219 292.286" stroke="#091245"/>
</svg>
