<svg width="101" height="101" viewBox="0 0 101 101" fill="none" xmlns="http://www.w3.org/2000/svg">
<circle cx="50.5" cy="50.5" r="50.5" fill="url(#paint0_linear)"/>
<circle cx="50.5" cy="50.5" r="50.5" stroke="black"/>
<path d="M53.5 56.9993C51 52.4993 43.4 45.3993 37 52.9993C38.8333 56.666 38.9 64.8998 24.5 70.4998C26.6667 75.6667 38.2 85.0997 63 79.4993C58.3333 76.8327 49.9 68.5993 53.5 56.9993Z" fill="white"/>
<path d="M37 52.9993C34 43.9998 26.1667 45.4993 24.5 48.9993V68.4994C31.1667 68.166 40 61.9989 37 52.9993Z" fill="white"/>
<path d="M65.5 79.4993C73.5 77.9999 83.5 63.9998 65 25.9998C62 19.8378 45.5 12 40.5 28.9998C39.5 37.9999 51.5 35.9999 53.5 34.4999C56 31.9999 53.3 32.0999 56.5 34.4999C59.7 36.8999 57 50.4999 57 50.4999C56.6667 52.4995 55.5 56.5989 53.5 56.9993C50.5 70.4998 62 77.4999 65.5 79.4993Z" fill="white"/>
<defs>
<linearGradient id="paint0_linear" x1="79" y1="15" x2="23" y2="89" gradientUnits="userSpaceOnUse">
<stop stop-color="#54AEFE"/>
<stop offset="1" stop-color="#615DF8"/>
</linearGradient>
</defs>
</svg>
