<svg width="101" height="101" viewBox="0 0 101 101" fill="none" xmlns="http://www.w3.org/2000/svg">
<circle cx="50.5" cy="50.5" r="50.5" fill="url(#paint0_linear)"/>
<circle cx="50.5" cy="50.5" r="50.5" stroke="black"/>
<path d="M53.0349 32.7581V34.9273C56.4648 35.1081 63.3244 37.5303 63.3244 41.4349C63.3244 46.3157 68.1984 63.1272 78.488 65.8388C80.1127 66.3811 82.6038 68.1165 79.5711 70.7195C76.5384 73.3226 74.1555 71.8041 72.5309 70.7195C69.2816 68.008 63.866 64.2118 60.0751 55.5349V65.8388C61.1582 67.1041 63.9743 69.8518 66.5738 70.7195C69.8231 71.8041 77.9464 71.2618 79.5711 75.6003C81.1958 79.9388 78.488 84.2772 65.4907 82.6503C55.0928 81.3488 51.5907 80.6617 50.8686 80.481C50.1466 80.6617 45.9072 81.3488 35.5093 82.6503C22.512 84.2772 19.8042 79.9388 21.4289 75.6003C23.0536 71.2618 31.1769 71.8041 34.4262 70.7195C37.0257 69.8518 39.8418 67.1041 40.9249 65.8388V55.5349C37.134 64.2118 31.7184 68.008 28.4691 70.7195C26.8445 71.8041 24.4616 73.3226 21.4289 70.7195C18.3962 68.1165 20.8873 66.3811 22.512 65.8388C32.8016 63.1272 37.6756 46.3157 37.6756 41.4349C37.6756 37.5303 44.5353 35.1081 47.9651 34.9273V32.7581C46.882 32.3964 45.2573 31.131 44.7158 29.5039C44.0097 27.3828 42.3046 16.9735 50.5212 17.0001C58.7378 17.0266 56.9903 27.3828 56.2842 29.5039C55.7427 31.131 54.118 32.3964 53.0349 32.7581Z" fill="white"/>
<defs>
<linearGradient id="paint0_linear" x1="79" y1="15" x2="23" y2="89" gradientUnits="userSpaceOnUse">
<stop stop-color="#54AEFE"/>
<stop offset="1" stop-color="#615DF8"/>
</linearGradient>
</defs>
</svg>
