<svg width="101" height="101" viewBox="0 0 101 101" fill="none" xmlns="http://www.w3.org/2000/svg">
<circle cx="50.5" cy="50.5" r="50.5" fill="url(#paint0_linear)"/>
<circle cx="50.5" cy="50.5" r="50.5" stroke="black"/>
<path d="M22.9011 29.8813C22.3905 29.9519 22.0105 30.3816 22.0308 30.8966C22.7202 48.3255 29.1631 81.2863 50 80.5C70.8369 81.2863 77.2798 48.3255 77.9692 30.8966C77.9895 30.3816 77.6095 29.9519 77.0989 29.8813C68.3436 28.6718 55.6184 25.3082 50.8557 20.9093C50.3849 20.4745 49.6151 20.4745 49.1443 20.9093C44.3816 25.3082 31.6564 28.6718 22.9011 29.8813Z" fill="white"/>
<path d="M46.6667 41C46.6667 40.4477 47.1144 40 47.6667 40H52.3333C52.8856 40 53.3333 40.4477 53.3333 41V45.6667C53.3333 46.219 53.781 46.6667 54.3333 46.6667H59C59.5523 46.6667 60 47.1144 60 47.6667V52.3333C60 52.8856 59.5523 53.3333 59 53.3333H54.3333C53.781 53.3333 53.3333 53.781 53.3333 54.3333V59C53.3333 59.5523 52.8856 60 52.3333 60H47.6667C47.1144 60 46.6667 59.5523 46.6667 59V54.3333C46.6667 53.781 46.219 53.3333 45.6667 53.3333H41C40.4477 53.3333 40 52.8856 40 52.3333V47.6667C40 47.1144 40.4477 46.6667 41 46.6667H45.6667C46.219 46.6667 46.6667 46.219 46.6667 45.6667V41Z" fill="url(#paint1_linear)"/>
<defs>
<linearGradient id="paint0_linear" x1="79" y1="15" x2="23" y2="89" gradientUnits="userSpaceOnUse">
<stop stop-color="#54AEFE"/>
<stop offset="1" stop-color="#615DF8"/>
</linearGradient>
<linearGradient id="paint1_linear" x1="75.6667" y1="28" x2="26.3333" y2="75" gradientUnits="userSpaceOnUse">
<stop stop-color="#54AEFE"/>
<stop offset="1" stop-color="#615DF8"/>
</linearGradient>
</defs>
</svg>
